M48
;DRILL file {KiCad 4.0.7} date 
;FORMAT={3:3/ absolute / metric / suppress leading zeros}
FMAT,2
METRIC,TZ
T1C0.400
T2C1.000
%
G90
G05
M71
T1
X56595Y-103436
X64094Y-105115
X64096Y-102515
X69209Y-117934
X71951Y-117949
X72946Y-117940
X74890Y-118042
X76366Y-115679
X76544Y-124960
X81628Y-104115
X81798Y-107390
X82337Y-105765
X82358Y-100347
X82865Y-101215
X84864Y-105115
X85190Y-101334
X88812Y-102515
X90637Y-101661
X90646Y-105635
X101688Y-102888
X104535Y-100640
X105010Y-103384
X105456Y-105702
X105647Y-106828
X111700Y-102515
X112209Y-101865
X112353Y-105115
X115879Y-117963
X116999Y-114590
X117624Y-116123
X118505Y-117948
X118839Y-122460
X119484Y-123171
X120997Y-117684
X121626Y-102515
X123167Y-118056
X123653Y-116673
X124632Y-124490
X124964Y-123679
X129918Y-100687
X130361Y-103838
X131461Y-104900
X131482Y-105792
X132356Y-102735
X134202Y-105115
X137065Y-101650
X137098Y-102495
X160367Y-104465
X160589Y-107390
X160989Y-105836
X161690Y-101182
X162439Y-102680
X164541Y-99336
X167811Y-102515
X168040Y-105115
X169654Y-118145
X172970Y-116480
X173004Y-123193
X173386Y-117969
X174393Y-123326
X175895Y-117969
X176979Y-117959
X177989Y-117963
X179877Y-122019
X180526Y-118145
X182983Y-103981
X186191Y-106407
X186303Y-107410
X186409Y-101638
X187051Y-105765
X187986Y-103207
X189719Y-102459
X192950Y-101865
X208906Y-100621
X209004Y-104140
X209180Y-107236
X209689Y-105721
X210722Y-102228
X212254Y-105093
X216359Y-102515
X219343Y-117956
X221401Y-117960
X221915Y-116546
X222652Y-117938
X222886Y-123111
X222890Y-101813
X222924Y-125882
X225231Y-117951
X226190Y-117722
X227857Y-122451
X231238Y-103346
X234417Y-103424
X235367Y-104317
X235367Y-105117
X236638Y-103195
X237211Y-105107
X238144Y-100316
X238439Y-102515
X241225Y-100817
X242750Y-108115
T2
X40640Y-101600
X40640Y-104140
X40640Y-106680
X40640Y-109220
X40640Y-111760
X40640Y-114300
X40640Y-116840
X40640Y-119380
X40640Y-121920
X45720Y-88900
X48260Y-88900
X50800Y-88900
X53340Y-88900
X55880Y-88900
X58420Y-88900
X60960Y-88900
X63500Y-88900
X66040Y-88900
X68580Y-88900
X71120Y-88900
X73660Y-88900
X76200Y-88900
X78740Y-88900
X81280Y-88900
X83820Y-88900
X86360Y-88900
X88900Y-88900
X91440Y-88900
X93980Y-88900
X96520Y-88900
X99060Y-88900
X101600Y-88900
X104140Y-88900
X106680Y-88900
X109220Y-88900
X111760Y-88900
X114300Y-88900
X116840Y-88900
X119380Y-88900
X121920Y-88900
X124460Y-88900
X127000Y-88900
X129540Y-88900
X132080Y-88900
X134620Y-88900
X137160Y-88900
X139700Y-88900
X142240Y-88900
X144780Y-88900
X149860Y-88900
X152400Y-88900
X154940Y-88900
X157480Y-88900
X160020Y-88900
X162560Y-88900
X165100Y-88900
X167640Y-88900
X170180Y-88900
X172720Y-88900
X175260Y-88900
X177800Y-88900
X180340Y-88900
X182880Y-88900
X185420Y-88900
X187960Y-88900
X190500Y-88900
X193040Y-88900
X195580Y-88900
X198120Y-88900
X200660Y-88900
X203200Y-88900
X205740Y-88900
X208280Y-88900
X210820Y-88900
X213360Y-88900
X215900Y-88900
X218440Y-88900
X220980Y-88900
X223520Y-88900
X226060Y-88900
X228600Y-88900
X231140Y-88900
X233680Y-88900
X236220Y-88900
X238760Y-88900
X241300Y-88900
X243840Y-88900
X246380Y-88900
X248920Y-88900
X254000Y-101600
X254000Y-104140
X254000Y-106680
X254000Y-109220
X254000Y-111760
X254000Y-114300
X254000Y-116840
X254000Y-119380
X254000Y-121920
T0
M30
