G04 #@! TF.FileFunction,Copper,L1,Top,Signal*
%FSLAX46Y46*%
G04 Gerber Fmt 4.6, Leading zero omitted, Abs format (unit mm)*
G04 Created by KiCad (PCBNEW 4.0.7) date *
%MOMM*%
%LPD*%
G01*
G04 APERTURE LIST*
%ADD10C,0.100000*%
%ADD11R,1.700000X1.700000*%
%ADD12O,1.700000X1.700000*%
%ADD13R,1.750000X0.450000*%
%ADD14R,0.600000X1.500000*%
%ADD15C,0.600000*%
%ADD16C,0.250000*%
G04 APERTURE END LIST*
D10*
D11*
X144780000Y-88900000D03*
D12*
X142240000Y-88900000D03*
X139700000Y-88900000D03*
X137160000Y-88900000D03*
X134620000Y-88900000D03*
X132080000Y-88900000D03*
X129540000Y-88900000D03*
X127000000Y-88900000D03*
X124460000Y-88900000D03*
X121920000Y-88900000D03*
X119380000Y-88900000D03*
X116840000Y-88900000D03*
X114300000Y-88900000D03*
X111760000Y-88900000D03*
X109220000Y-88900000D03*
X106680000Y-88900000D03*
X104140000Y-88900000D03*
X101600000Y-88900000D03*
X99060000Y-88900000D03*
X96520000Y-88900000D03*
X93980000Y-88900000D03*
X91440000Y-88900000D03*
X88900000Y-88900000D03*
X86360000Y-88900000D03*
X83820000Y-88900000D03*
X81280000Y-88900000D03*
X78740000Y-88900000D03*
X76200000Y-88900000D03*
X73660000Y-88900000D03*
X71120000Y-88900000D03*
X68580000Y-88900000D03*
X66040000Y-88900000D03*
X63500000Y-88900000D03*
X60960000Y-88900000D03*
X58420000Y-88900000D03*
X55880000Y-88900000D03*
X53340000Y-88900000D03*
X50800000Y-88900000D03*
X48260000Y-88900000D03*
X45720000Y-88900000D03*
D11*
X248920000Y-88900000D03*
D12*
X246380000Y-88900000D03*
X243840000Y-88900000D03*
X241300000Y-88900000D03*
X238760000Y-88900000D03*
X236220000Y-88900000D03*
X233680000Y-88900000D03*
X231140000Y-88900000D03*
X228600000Y-88900000D03*
X226060000Y-88900000D03*
X223520000Y-88900000D03*
X220980000Y-88900000D03*
X218440000Y-88900000D03*
X215900000Y-88900000D03*
X213360000Y-88900000D03*
X210820000Y-88900000D03*
X208280000Y-88900000D03*
X205740000Y-88900000D03*
X203200000Y-88900000D03*
X200660000Y-88900000D03*
X198120000Y-88900000D03*
X195580000Y-88900000D03*
X193040000Y-88900000D03*
X190500000Y-88900000D03*
X187960000Y-88900000D03*
X185420000Y-88900000D03*
X182880000Y-88900000D03*
X180340000Y-88900000D03*
X177800000Y-88900000D03*
X175260000Y-88900000D03*
X172720000Y-88900000D03*
X170180000Y-88900000D03*
X167640000Y-88900000D03*
X165100000Y-88900000D03*
X162560000Y-88900000D03*
X160020000Y-88900000D03*
X157480000Y-88900000D03*
X154940000Y-88900000D03*
X152400000Y-88900000D03*
X149860000Y-88900000D03*
D11*
X40640000Y-101600000D03*
D12*
X40640000Y-104140000D03*
X40640000Y-106680000D03*
X40640000Y-109220000D03*
X40640000Y-111760000D03*
X40640000Y-114300000D03*
X40640000Y-116840000D03*
X40640000Y-119380000D03*
X40640000Y-121920000D03*
D11*
X254000000Y-101600000D03*
D12*
X254000000Y-104140000D03*
X254000000Y-106680000D03*
X254000000Y-109220000D03*
X254000000Y-111760000D03*
X254000000Y-114300000D03*
X254000000Y-116840000D03*
X254000000Y-119380000D03*
X254000000Y-121920000D03*
D13*
X54820000Y-100565000D03*
X54820000Y-101215000D03*
X54820000Y-101865000D03*
X54820000Y-102515000D03*
X54820000Y-103165000D03*
X54820000Y-103815000D03*
X54820000Y-104465000D03*
X54820000Y-105115000D03*
X54820000Y-105765000D03*
X54820000Y-106415000D03*
X54820000Y-107065000D03*
X54820000Y-107715000D03*
X62020000Y-107715000D03*
X62020000Y-107065000D03*
X62020000Y-106415000D03*
X62020000Y-105765000D03*
X62020000Y-105115000D03*
X62020000Y-104465000D03*
X62020000Y-103815000D03*
X62020000Y-103165000D03*
X62020000Y-102515000D03*
X62020000Y-101865000D03*
X62020000Y-101215000D03*
X62020000Y-100565000D03*
D14*
X75565000Y-119220000D03*
X74295000Y-119220000D03*
X73025000Y-119220000D03*
X71755000Y-119220000D03*
X70485000Y-119220000D03*
X69215000Y-119220000D03*
X67945000Y-119220000D03*
X66675000Y-119220000D03*
X66675000Y-124620000D03*
X67945000Y-124620000D03*
X69215000Y-124620000D03*
X70485000Y-124620000D03*
X71755000Y-124620000D03*
X73025000Y-124620000D03*
X74295000Y-124620000D03*
X75565000Y-124620000D03*
D13*
X80220000Y-100565000D03*
X80220000Y-101215000D03*
X80220000Y-101865000D03*
X80220000Y-102515000D03*
X80220000Y-103165000D03*
X80220000Y-103815000D03*
X80220000Y-104465000D03*
X80220000Y-105115000D03*
X80220000Y-105765000D03*
X80220000Y-106415000D03*
X80220000Y-107065000D03*
X80220000Y-107715000D03*
X87420000Y-107715000D03*
X87420000Y-107065000D03*
X87420000Y-106415000D03*
X87420000Y-105765000D03*
X87420000Y-105115000D03*
X87420000Y-104465000D03*
X87420000Y-103815000D03*
X87420000Y-103165000D03*
X87420000Y-102515000D03*
X87420000Y-101865000D03*
X87420000Y-101215000D03*
X87420000Y-100565000D03*
X103080000Y-100565000D03*
X103080000Y-101215000D03*
X103080000Y-101865000D03*
X103080000Y-102515000D03*
X103080000Y-103165000D03*
X103080000Y-103815000D03*
X103080000Y-104465000D03*
X103080000Y-105115000D03*
X103080000Y-105765000D03*
X103080000Y-106415000D03*
X103080000Y-107065000D03*
X103080000Y-107715000D03*
X110280000Y-107715000D03*
X110280000Y-107065000D03*
X110280000Y-106415000D03*
X110280000Y-105765000D03*
X110280000Y-105115000D03*
X110280000Y-104465000D03*
X110280000Y-103815000D03*
X110280000Y-103165000D03*
X110280000Y-102515000D03*
X110280000Y-101865000D03*
X110280000Y-101215000D03*
X110280000Y-100565000D03*
D14*
X123825000Y-119220000D03*
X122555000Y-119220000D03*
X121285000Y-119220000D03*
X120015000Y-119220000D03*
X118745000Y-119220000D03*
X117475000Y-119220000D03*
X116205000Y-119220000D03*
X114935000Y-119220000D03*
X114935000Y-124620000D03*
X116205000Y-124620000D03*
X117475000Y-124620000D03*
X118745000Y-124620000D03*
X120015000Y-124620000D03*
X121285000Y-124620000D03*
X122555000Y-124620000D03*
X123825000Y-124620000D03*
D13*
X128480000Y-100565000D03*
X128480000Y-101215000D03*
X128480000Y-101865000D03*
X128480000Y-102515000D03*
X128480000Y-103165000D03*
X128480000Y-103815000D03*
X128480000Y-104465000D03*
X128480000Y-105115000D03*
X128480000Y-105765000D03*
X128480000Y-106415000D03*
X128480000Y-107065000D03*
X128480000Y-107715000D03*
X135680000Y-107715000D03*
X135680000Y-107065000D03*
X135680000Y-106415000D03*
X135680000Y-105765000D03*
X135680000Y-105115000D03*
X135680000Y-104465000D03*
X135680000Y-103815000D03*
X135680000Y-103165000D03*
X135680000Y-102515000D03*
X135680000Y-101865000D03*
X135680000Y-101215000D03*
X135680000Y-100565000D03*
X158960000Y-100565000D03*
X158960000Y-101215000D03*
X158960000Y-101865000D03*
X158960000Y-102515000D03*
X158960000Y-103165000D03*
X158960000Y-103815000D03*
X158960000Y-104465000D03*
X158960000Y-105115000D03*
X158960000Y-105765000D03*
X158960000Y-106415000D03*
X158960000Y-107065000D03*
X158960000Y-107715000D03*
X166160000Y-107715000D03*
X166160000Y-107065000D03*
X166160000Y-106415000D03*
X166160000Y-105765000D03*
X166160000Y-105115000D03*
X166160000Y-104465000D03*
X166160000Y-103815000D03*
X166160000Y-103165000D03*
X166160000Y-102515000D03*
X166160000Y-101865000D03*
X166160000Y-101215000D03*
X166160000Y-100565000D03*
D14*
X179705000Y-119220000D03*
X178435000Y-119220000D03*
X177165000Y-119220000D03*
X175895000Y-119220000D03*
X174625000Y-119220000D03*
X173355000Y-119220000D03*
X172085000Y-119220000D03*
X170815000Y-119220000D03*
X170815000Y-124620000D03*
X172085000Y-124620000D03*
X173355000Y-124620000D03*
X174625000Y-124620000D03*
X175895000Y-124620000D03*
X177165000Y-124620000D03*
X178435000Y-124620000D03*
X179705000Y-124620000D03*
D13*
X184360000Y-100565000D03*
X184360000Y-101215000D03*
X184360000Y-101865000D03*
X184360000Y-102515000D03*
X184360000Y-103165000D03*
X184360000Y-103815000D03*
X184360000Y-104465000D03*
X184360000Y-105115000D03*
X184360000Y-105765000D03*
X184360000Y-106415000D03*
X184360000Y-107065000D03*
X184360000Y-107715000D03*
X191560000Y-107715000D03*
X191560000Y-107065000D03*
X191560000Y-106415000D03*
X191560000Y-105765000D03*
X191560000Y-105115000D03*
X191560000Y-104465000D03*
X191560000Y-103815000D03*
X191560000Y-103165000D03*
X191560000Y-102515000D03*
X191560000Y-101865000D03*
X191560000Y-101215000D03*
X191560000Y-100565000D03*
X207220000Y-100565000D03*
X207220000Y-101215000D03*
X207220000Y-101865000D03*
X207220000Y-102515000D03*
X207220000Y-103165000D03*
X207220000Y-103815000D03*
X207220000Y-104465000D03*
X207220000Y-105115000D03*
X207220000Y-105765000D03*
X207220000Y-106415000D03*
X207220000Y-107065000D03*
X207220000Y-107715000D03*
X214420000Y-107715000D03*
X214420000Y-107065000D03*
X214420000Y-106415000D03*
X214420000Y-105765000D03*
X214420000Y-105115000D03*
X214420000Y-104465000D03*
X214420000Y-103815000D03*
X214420000Y-103165000D03*
X214420000Y-102515000D03*
X214420000Y-101865000D03*
X214420000Y-101215000D03*
X214420000Y-100565000D03*
D14*
X227965000Y-119220000D03*
X226695000Y-119220000D03*
X225425000Y-119220000D03*
X224155000Y-119220000D03*
X222885000Y-119220000D03*
X221615000Y-119220000D03*
X220345000Y-119220000D03*
X219075000Y-119220000D03*
X219075000Y-124620000D03*
X220345000Y-124620000D03*
X221615000Y-124620000D03*
X222885000Y-124620000D03*
X224155000Y-124620000D03*
X225425000Y-124620000D03*
X226695000Y-124620000D03*
X227965000Y-124620000D03*
D13*
X232620000Y-100565000D03*
X232620000Y-101215000D03*
X232620000Y-101865000D03*
X232620000Y-102515000D03*
X232620000Y-103165000D03*
X232620000Y-103815000D03*
X232620000Y-104465000D03*
X232620000Y-105115000D03*
X232620000Y-105765000D03*
X232620000Y-106415000D03*
X232620000Y-107065000D03*
X232620000Y-107715000D03*
X239820000Y-107715000D03*
X239820000Y-107065000D03*
X239820000Y-106415000D03*
X239820000Y-105765000D03*
X239820000Y-105115000D03*
X239820000Y-104465000D03*
X239820000Y-103815000D03*
X239820000Y-103165000D03*
X239820000Y-102515000D03*
X239820000Y-101865000D03*
X239820000Y-101215000D03*
X239820000Y-100565000D03*
D15*
X129917600Y-100687400D03*
X132356100Y-102734600D03*
X137064800Y-101649900D03*
X123652800Y-116673000D03*
X131461100Y-104900100D03*
X130360700Y-103838400D03*
X131482000Y-105792100D03*
X120997200Y-117684400D03*
X104534500Y-100639900D03*
X105009600Y-103383500D03*
X112209500Y-101865000D03*
X118505300Y-117947900D03*
X105647400Y-106828400D03*
X101688500Y-102887500D03*
X105456500Y-105701600D03*
X115879500Y-117962800D03*
X82864700Y-101215000D03*
X82358500Y-100346800D03*
X85190200Y-101334400D03*
X76366400Y-115678500D03*
X81798300Y-107390000D03*
X81627600Y-104115400D03*
X82337400Y-105765000D03*
X72945600Y-117940300D03*
X56595100Y-103435900D03*
X236638200Y-103194900D03*
X231237800Y-103346000D03*
X235367500Y-104316500D03*
X234417200Y-103423700D03*
X235367500Y-105116900D03*
X225231500Y-117951200D03*
X208906000Y-100621100D03*
X210721600Y-102228200D03*
X222889500Y-101813200D03*
X222652000Y-117938000D03*
X209179800Y-107235600D03*
X209003800Y-104140200D03*
X209688800Y-105721300D03*
X219343100Y-117955600D03*
X186408600Y-101638400D03*
X187986500Y-103206800D03*
X192950100Y-101865000D03*
X180526300Y-118144700D03*
X186302700Y-107410100D03*
X182983100Y-103981000D03*
X187051300Y-105765000D03*
X176979100Y-117958800D03*
X162439500Y-102679600D03*
X161689600Y-101182200D03*
X164541400Y-99335800D03*
X172969800Y-116479700D03*
X160589000Y-107390000D03*
X160367200Y-104465000D03*
X160989100Y-105835500D03*
X169654000Y-118144700D03*
X121626400Y-102515000D03*
X118838600Y-122459700D03*
X124631900Y-124489600D03*
X90636800Y-101661200D03*
X90645500Y-105635000D03*
X241225300Y-100816800D03*
X222924200Y-125881900D03*
X119483600Y-123170500D03*
X174393300Y-123325700D03*
X222886500Y-123111200D03*
X173003800Y-123193500D03*
X242749700Y-108115000D03*
X238144500Y-100315900D03*
X69209100Y-117933800D03*
X64094400Y-105115000D03*
X71950800Y-117948900D03*
X64096200Y-102515000D03*
X74890400Y-118042400D03*
X84863800Y-105115000D03*
X76543500Y-124960300D03*
X88812300Y-102515000D03*
X116999100Y-114589700D03*
X112353300Y-105115000D03*
X117624500Y-116122900D03*
X111700100Y-102515000D03*
X123167000Y-118056400D03*
X134201700Y-105115000D03*
X124963700Y-123679200D03*
X137097600Y-102494900D03*
X173386500Y-117968600D03*
X168040000Y-105115000D03*
X175895000Y-117969200D03*
X167810600Y-102515000D03*
X177988800Y-117962500D03*
X186191100Y-106406700D03*
X179876900Y-122018600D03*
X189718600Y-102458900D03*
X221400600Y-117959900D03*
X212254000Y-105093100D03*
X221914800Y-116545900D03*
X216359000Y-102515000D03*
X226190100Y-117722100D03*
X237211000Y-105107400D03*
X227856600Y-122451200D03*
X238438600Y-102515000D03*
D16*
X128480000Y-101215000D02*
X128480000Y-100687400D01*
X128480000Y-100687400D02*
X128480000Y-100565000D01*
X128480000Y-100687400D02*
X129917600Y-100687400D01*
X128480000Y-103815000D02*
X129680300Y-103815000D01*
X128480000Y-103165000D02*
X129567700Y-103165000D01*
X129680300Y-103165000D02*
X129680300Y-103815000D01*
X129567700Y-103165000D02*
X129680300Y-103165000D01*
X131925700Y-103165000D02*
X132356100Y-102734600D01*
X129680300Y-103165000D02*
X131925700Y-103165000D01*
X135680000Y-101865000D02*
X136880300Y-101865000D01*
X136880300Y-101834400D02*
X137064800Y-101649900D01*
X136880300Y-101865000D02*
X136880300Y-101834400D01*
X66675000Y-119220000D02*
X66675000Y-120295300D01*
X71755000Y-124620000D02*
X71755000Y-123544700D01*
X232620000Y-102515000D02*
X233820300Y-102515000D01*
X185447700Y-105765000D02*
X185560300Y-105765000D01*
X158960000Y-106415000D02*
X160160300Y-106415000D01*
X160160300Y-106415000D02*
X160160300Y-105765000D01*
X160160300Y-102515000D02*
X160160300Y-101865000D01*
X158960000Y-101865000D02*
X160160300Y-101865000D01*
X158960000Y-102515000D02*
X160047700Y-102515000D01*
X160047700Y-102515000D02*
X160160300Y-102515000D01*
X160160300Y-105765000D02*
X161460300Y-104465000D01*
X128480000Y-106415000D02*
X129680300Y-106415000D01*
X103080000Y-102515000D02*
X103680200Y-102515000D01*
X103080000Y-101865000D02*
X104280300Y-101865000D01*
X80220000Y-102515000D02*
X81420300Y-102515000D01*
X80220000Y-101865000D02*
X81420300Y-101865000D01*
X81420300Y-102515000D02*
X81420300Y-101865000D01*
X54820000Y-106415000D02*
X56020300Y-106415000D01*
X56020300Y-106415000D02*
X56020300Y-105765000D01*
X54820000Y-105765000D02*
X56020300Y-105765000D01*
X191560000Y-104465000D02*
X190359700Y-104465000D01*
X80220000Y-106415000D02*
X81420300Y-106415000D01*
X161460300Y-104465000D02*
X166160000Y-104465000D01*
X128480000Y-105765000D02*
X127279700Y-105765000D01*
X61419900Y-104465000D02*
X60819700Y-104465000D01*
X61419900Y-104465000D02*
X62020000Y-104465000D01*
X114935000Y-119220000D02*
X114935000Y-120295300D01*
X128480000Y-105765000D02*
X129680300Y-105765000D01*
X129680300Y-105765000D02*
X129680300Y-106415000D01*
X161460300Y-103815000D02*
X160160300Y-102515000D01*
X161460300Y-104465000D02*
X161460300Y-103815000D01*
X233820300Y-102515000D02*
X233820300Y-101865000D01*
X232620000Y-101865000D02*
X233820300Y-101865000D01*
X232620000Y-105765000D02*
X232019900Y-105765000D01*
X232620000Y-106415000D02*
X231419700Y-106415000D01*
X66359400Y-105765000D02*
X80220000Y-105765000D01*
X65059400Y-104465000D02*
X66359400Y-105765000D01*
X63220300Y-104465000D02*
X65059400Y-104465000D01*
X62020000Y-104465000D02*
X63220300Y-104465000D01*
X66675000Y-120295300D02*
X68505600Y-120295300D01*
X68505600Y-120295300D02*
X71755000Y-123544700D01*
X48260000Y-88900000D02*
X48260000Y-90075300D01*
X94954300Y-104465000D02*
X87420000Y-104465000D01*
X96254300Y-105765000D02*
X94954300Y-104465000D01*
X103080000Y-105765000D02*
X96254300Y-105765000D01*
X80220000Y-105765000D02*
X81420300Y-105765000D01*
X81420300Y-106415000D02*
X81420300Y-105765000D01*
X104043100Y-102515000D02*
X104280300Y-102277800D01*
X103680200Y-102515000D02*
X104043100Y-102515000D01*
X104280300Y-102277800D02*
X104280300Y-101865000D01*
X104280300Y-106415000D02*
X104280300Y-105765000D01*
X103080000Y-106415000D02*
X104280300Y-106415000D01*
X103080000Y-105765000D02*
X104167700Y-105765000D01*
X104167700Y-105765000D02*
X104280300Y-105765000D01*
X110280000Y-104465000D02*
X111480300Y-104465000D01*
X124460000Y-88900000D02*
X123872400Y-88900000D01*
X137160000Y-88900000D02*
X135984700Y-88900000D01*
X138335300Y-88532600D02*
X138335300Y-88900000D01*
X139143200Y-87724700D02*
X138335300Y-88532600D01*
X150416700Y-87724700D02*
X139143200Y-87724700D01*
X151224700Y-88532700D02*
X150416700Y-87724700D01*
X151224700Y-88900000D02*
X151224700Y-88532700D01*
X152400000Y-88900000D02*
X151224700Y-88900000D01*
X137160000Y-88900000D02*
X138335300Y-88900000D01*
X54820000Y-102515000D02*
X53619700Y-102515000D01*
X74799700Y-120500000D02*
X114935000Y-120500000D01*
X71755000Y-123544700D02*
X74799700Y-120500000D01*
X114935000Y-120500000D02*
X114935000Y-120295300D01*
X117822700Y-120500000D02*
X114935000Y-120500000D01*
X120108900Y-122786200D02*
X117822700Y-120500000D01*
X120108900Y-123450800D02*
X120108900Y-122786200D01*
X120015000Y-123544700D02*
X120108900Y-123450800D01*
X120015000Y-124620000D02*
X120015000Y-123544700D01*
X184360000Y-105765000D02*
X183159700Y-105765000D01*
X184360000Y-102515000D02*
X183759900Y-102515000D01*
X184360000Y-101865000D02*
X183159700Y-101865000D01*
X183396900Y-102515000D02*
X183159700Y-102515000D01*
X183759900Y-102515000D02*
X183396900Y-102515000D01*
X183159700Y-102277800D02*
X183159700Y-101865000D01*
X183396900Y-102515000D02*
X183159700Y-102277800D01*
X166160000Y-104465000D02*
X167360300Y-104465000D01*
X182251700Y-104465000D02*
X167360300Y-104465000D01*
X182251700Y-104857000D02*
X182251700Y-104465000D01*
X183159700Y-105765000D02*
X182251700Y-104857000D01*
X182251700Y-103423000D02*
X183159700Y-102515000D01*
X182251700Y-104465000D02*
X182251700Y-103423000D01*
X184360000Y-106415000D02*
X184960200Y-106415000D01*
X185560300Y-106177800D02*
X185560300Y-105765000D01*
X185323100Y-106415000D02*
X185560300Y-106177800D01*
X184960200Y-106415000D02*
X185323100Y-106415000D01*
X184360000Y-105765000D02*
X185447700Y-105765000D01*
X186747700Y-104465000D02*
X185447700Y-105765000D01*
X190359700Y-104465000D02*
X186747700Y-104465000D01*
X207220000Y-106415000D02*
X208420300Y-106415000D01*
X208420300Y-106415000D02*
X208420300Y-105765000D01*
X209720300Y-104465000D02*
X208420300Y-105765000D01*
X214420000Y-104465000D02*
X209720300Y-104465000D01*
X208420300Y-105765000D02*
X207220000Y-105765000D01*
X206019700Y-104465000D02*
X191560000Y-104465000D01*
X206019700Y-105765000D02*
X206019700Y-104465000D01*
X206019700Y-104465000D02*
X206019700Y-102515000D01*
X207220000Y-105765000D02*
X206019700Y-105765000D01*
X207220000Y-102515000D02*
X206619900Y-102515000D01*
X207220000Y-101865000D02*
X206019700Y-101865000D01*
X206256900Y-102515000D02*
X206019700Y-102515000D01*
X206619900Y-102515000D02*
X206256900Y-102515000D01*
X206019700Y-102277800D02*
X206019700Y-101865000D01*
X206256900Y-102515000D02*
X206019700Y-102277800D01*
X217075300Y-88532600D02*
X217075300Y-88900000D01*
X217883200Y-87724700D02*
X217075300Y-88532600D01*
X226616700Y-87724700D02*
X217883200Y-87724700D01*
X227424700Y-88532700D02*
X226616700Y-87724700D01*
X227424700Y-88900000D02*
X227424700Y-88532700D01*
X228600000Y-88900000D02*
X227424700Y-88900000D01*
X215900000Y-88900000D02*
X217075300Y-88900000D01*
X224155000Y-124620000D02*
X224155000Y-123544700D01*
X219075000Y-119220000D02*
X219075000Y-120295300D01*
X232620000Y-105765000D02*
X233820300Y-105765000D01*
X231656900Y-105765000D02*
X231419700Y-106002200D01*
X232019900Y-105765000D02*
X231656900Y-105765000D01*
X231419700Y-106002200D02*
X231419700Y-106415000D01*
X254000000Y-104140000D02*
X254000000Y-104427500D01*
X241057800Y-104427500D02*
X241020300Y-104465000D01*
X254000000Y-104427500D02*
X241057800Y-104427500D01*
X239820000Y-104465000D02*
X241020300Y-104465000D01*
X160160300Y-105765000D02*
X158960000Y-105765000D01*
X139974200Y-104465000D02*
X135680000Y-104465000D01*
X141274200Y-105765000D02*
X139974200Y-104465000D01*
X158960000Y-105765000D02*
X141274200Y-105765000D01*
X60819700Y-104465000D02*
X57320300Y-104465000D01*
X57320300Y-104465000D02*
X56020300Y-105765000D01*
X54809900Y-101854900D02*
X54820000Y-101865000D01*
X53884100Y-101854900D02*
X54809900Y-101854900D01*
X53619700Y-101590500D02*
X53884100Y-101854900D01*
X53619700Y-97415600D02*
X53619700Y-101590500D01*
X60960000Y-90075300D02*
X53619700Y-97415600D01*
X53619700Y-102119300D02*
X53619700Y-102515000D01*
X53884100Y-101854900D02*
X53619700Y-102119300D01*
X104788300Y-102277800D02*
X104280300Y-102277800D01*
X106160600Y-103650100D02*
X104788300Y-102277800D01*
X106160600Y-103884700D02*
X106160600Y-103650100D01*
X104280300Y-105765000D02*
X106160600Y-103884700D01*
X106740900Y-104465000D02*
X110280000Y-104465000D01*
X106160600Y-103884700D02*
X106740900Y-104465000D01*
X229882500Y-104465000D02*
X231419700Y-106002200D01*
X214420000Y-104465000D02*
X229882500Y-104465000D01*
X239820000Y-104465000D02*
X238619700Y-104465000D01*
X60960000Y-88900000D02*
X60960000Y-90075300D01*
X54820000Y-102515000D02*
X56020300Y-102515000D01*
X56558600Y-102515000D02*
X56020300Y-102515000D01*
X57320300Y-103276700D02*
X56558600Y-102515000D01*
X57320300Y-104465000D02*
X57320300Y-103276700D01*
X82709700Y-103804400D02*
X81420300Y-102515000D01*
X82709700Y-104465000D02*
X82709700Y-103804400D01*
X87420000Y-104465000D02*
X82709700Y-104465000D01*
X81420300Y-105754400D02*
X81420300Y-105765000D01*
X82709700Y-104465000D02*
X81420300Y-105754400D01*
X110584700Y-88532600D02*
X110584700Y-88900000D01*
X109776800Y-87724700D02*
X110584700Y-88532600D01*
X101043300Y-87724700D02*
X109776800Y-87724700D01*
X100235300Y-88532700D02*
X101043300Y-87724700D01*
X100235300Y-88900000D02*
X100235300Y-88532700D01*
X99060000Y-88900000D02*
X100235300Y-88900000D01*
X111760000Y-88900000D02*
X110584700Y-88900000D01*
X135984700Y-88532600D02*
X135984700Y-88900000D01*
X135176800Y-87724700D02*
X135984700Y-88532600D01*
X125047700Y-87724700D02*
X135176800Y-87724700D01*
X123872400Y-88900000D02*
X125047700Y-87724700D01*
X111760000Y-88900000D02*
X112935300Y-88900000D01*
X112935300Y-88532600D02*
X112935300Y-88900000D01*
X113743200Y-87724700D02*
X112935300Y-88532600D01*
X122697100Y-87724700D02*
X113743200Y-87724700D01*
X123872400Y-88900000D02*
X122697100Y-87724700D01*
X127279700Y-104465000D02*
X127279700Y-102515000D01*
X127279700Y-105765000D02*
X127279700Y-104465000D01*
X127279700Y-104465000D02*
X111480300Y-104465000D01*
X128480000Y-102515000D02*
X127879900Y-102515000D01*
X128480000Y-101865000D02*
X127279700Y-101865000D01*
X127516900Y-102515000D02*
X127279700Y-102515000D01*
X127879900Y-102515000D02*
X127516900Y-102515000D01*
X127279700Y-102277800D02*
X127279700Y-101865000D01*
X127516900Y-102515000D02*
X127279700Y-102277800D01*
X176624700Y-88532600D02*
X176624700Y-88900000D01*
X175816800Y-87724700D02*
X176624700Y-88532600D01*
X167083300Y-87724700D02*
X175816800Y-87724700D01*
X166275300Y-88532700D02*
X167083300Y-87724700D01*
X166275300Y-88900000D02*
X166275300Y-88532700D01*
X165100000Y-88900000D02*
X166275300Y-88900000D01*
X177800000Y-88900000D02*
X176624700Y-88900000D01*
X214724700Y-88532600D02*
X214724700Y-88900000D01*
X213916800Y-87724700D02*
X214724700Y-88532600D01*
X205183300Y-87724700D02*
X213916800Y-87724700D01*
X204375300Y-88532700D02*
X205183300Y-87724700D01*
X204375300Y-88900000D02*
X204375300Y-88532700D01*
X203200000Y-88900000D02*
X204375300Y-88900000D01*
X215900000Y-88900000D02*
X214724700Y-88900000D01*
X224155000Y-123495300D02*
X224084800Y-123425000D01*
X224155000Y-123544700D02*
X224155000Y-123495300D01*
X220955000Y-120295300D02*
X219075000Y-120295300D01*
X224084800Y-123425000D02*
X220955000Y-120295300D01*
X175895000Y-124620000D02*
X175895000Y-123544700D01*
X170815000Y-119220000D02*
X170815000Y-120295300D01*
X175895000Y-123544700D02*
X175895000Y-120956900D01*
X175233400Y-120295300D02*
X175895000Y-120956900D01*
X170815000Y-120295300D02*
X175233400Y-120295300D01*
X218413400Y-120956900D02*
X219075000Y-120295300D01*
X175895000Y-120956900D02*
X218413400Y-120956900D01*
X255175900Y-105603400D02*
X254000000Y-104427500D01*
X255175900Y-107183300D02*
X255175900Y-105603400D01*
X254409200Y-107950000D02*
X255175900Y-107183300D01*
X251474500Y-107950000D02*
X254409200Y-107950000D01*
X242109200Y-117315300D02*
X251474500Y-107950000D01*
X228152500Y-117315300D02*
X242109200Y-117315300D01*
X227330000Y-118137800D02*
X228152500Y-117315300D01*
X227330000Y-120179800D02*
X227330000Y-118137800D01*
X224084800Y-123425000D02*
X227330000Y-120179800D01*
X131230300Y-104215000D02*
X129680300Y-105765000D01*
X132090200Y-104215000D02*
X131230300Y-104215000D01*
X132340200Y-104465000D02*
X132090200Y-104215000D01*
X135680000Y-104465000D02*
X132340200Y-104465000D01*
X68570400Y-120230500D02*
X68505600Y-120295300D01*
X68570400Y-118132200D02*
X68570400Y-120230500D01*
X64121600Y-113683400D02*
X68570400Y-118132200D01*
X57923600Y-113683400D02*
X64121600Y-113683400D01*
X48260000Y-104019800D02*
X57923600Y-113683400D01*
X48260000Y-90075300D02*
X48260000Y-104019800D01*
X97884700Y-88532600D02*
X97884700Y-88900000D01*
X97076800Y-87724700D02*
X97884700Y-88532600D01*
X88343300Y-87724700D02*
X97076800Y-87724700D01*
X87535300Y-88532700D02*
X88343300Y-87724700D01*
X87535300Y-88900000D02*
X87535300Y-88532700D01*
X86360000Y-88900000D02*
X87535300Y-88900000D01*
X99060000Y-88900000D02*
X97884700Y-88900000D01*
X202024700Y-88532600D02*
X202024700Y-88900000D01*
X201216800Y-87724700D02*
X202024700Y-88532600D01*
X192483300Y-87724700D02*
X201216800Y-87724700D01*
X191675300Y-88532700D02*
X192483300Y-87724700D01*
X191675300Y-88900000D02*
X191675300Y-88532700D01*
X190500000Y-88900000D02*
X191675300Y-88900000D01*
X203200000Y-88900000D02*
X202024700Y-88900000D01*
X235108500Y-103126800D02*
X235108500Y-103691200D01*
X234496700Y-102515000D02*
X235108500Y-103126800D01*
X233820300Y-102515000D02*
X234496700Y-102515000D01*
X235626600Y-103691200D02*
X235108500Y-103691200D01*
X236400400Y-104465000D02*
X235626600Y-103691200D01*
X238619700Y-104465000D02*
X236400400Y-104465000D01*
X234291900Y-105293400D02*
X233820300Y-105765000D01*
X234291900Y-104507800D02*
X234291900Y-105293400D01*
X235108500Y-103691200D02*
X234291900Y-104507800D01*
X123825000Y-116845200D02*
X123652800Y-116673000D01*
X123825000Y-119220000D02*
X123825000Y-116845200D01*
X128480000Y-107715000D02*
X129680300Y-107715000D01*
X128480000Y-107065000D02*
X129680300Y-107065000D01*
X129680300Y-107715000D02*
X129680300Y-107065000D01*
X130130700Y-106230500D02*
X131461100Y-104900100D01*
X130130700Y-106614600D02*
X130130700Y-106230500D01*
X129680300Y-107065000D02*
X130130700Y-106614600D01*
X128480000Y-105115000D02*
X129680300Y-105115000D01*
X128480000Y-104465000D02*
X129680300Y-104465000D01*
X129680300Y-105115000D02*
X129680300Y-104465000D01*
X129734100Y-104465000D02*
X130360700Y-103838400D01*
X129680300Y-104465000D02*
X129734100Y-104465000D01*
X135680000Y-105765000D02*
X134479700Y-105765000D01*
X134452600Y-105792100D02*
X134479700Y-105765000D01*
X131482000Y-105792100D02*
X134452600Y-105792100D01*
X121285000Y-117972200D02*
X120997200Y-117684400D01*
X121285000Y-119220000D02*
X121285000Y-117972200D01*
X103080000Y-101215000D02*
X104280300Y-101215000D01*
X103080000Y-100565000D02*
X103680200Y-100565000D01*
X104280300Y-101215000D02*
X104280300Y-100639900D01*
X103755100Y-100639900D02*
X104280300Y-100639900D01*
X103680200Y-100565000D02*
X103755100Y-100639900D01*
X104280300Y-100639900D02*
X104534500Y-100639900D01*
X103080000Y-103815000D02*
X104280300Y-103815000D01*
X103080000Y-103165000D02*
X104167700Y-103165000D01*
X104280300Y-103383500D02*
X105009600Y-103383500D01*
X104280300Y-103815000D02*
X104280300Y-103383500D01*
X104280300Y-103277600D02*
X104167700Y-103165000D01*
X104280300Y-103383500D02*
X104280300Y-103277600D01*
X110280000Y-101865000D02*
X112209500Y-101865000D01*
X118702100Y-118144700D02*
X118505300Y-117947900D01*
X118745000Y-118144700D02*
X118702100Y-118144700D01*
X118745000Y-119220000D02*
X118745000Y-118144700D01*
X103080000Y-107715000D02*
X104280300Y-107715000D01*
X103080000Y-107065000D02*
X104280300Y-107065000D01*
X104280300Y-107715000D02*
X104280300Y-107065000D01*
X105410800Y-107065000D02*
X105647400Y-106828400D01*
X104280300Y-107065000D02*
X105410800Y-107065000D01*
X103080000Y-104465000D02*
X101879700Y-104465000D01*
X101879700Y-103078700D02*
X101688500Y-102887500D01*
X101879700Y-104465000D02*
X101879700Y-103078700D01*
X104280300Y-105115000D02*
X104280300Y-104465000D01*
X103080000Y-105115000D02*
X104280300Y-105115000D01*
X103080000Y-104465000D02*
X104280300Y-104465000D01*
X110280000Y-105765000D02*
X109079700Y-105765000D01*
X109016300Y-105701600D02*
X105456500Y-105701600D01*
X109079700Y-105765000D02*
X109016300Y-105701600D01*
X116061400Y-118144700D02*
X115879500Y-117962800D01*
X116205000Y-118144700D02*
X116061400Y-118144700D01*
X116205000Y-119220000D02*
X116205000Y-118144700D01*
X80220000Y-101215000D02*
X81420300Y-101215000D01*
X80220000Y-100565000D02*
X81420300Y-100565000D01*
X81420300Y-101215000D02*
X81420300Y-100565000D01*
X81420300Y-101215000D02*
X82864700Y-101215000D01*
X80220000Y-103815000D02*
X80220000Y-103165000D01*
X80220000Y-103165000D02*
X79019700Y-103165000D01*
X82026300Y-100014600D02*
X82358500Y-100346800D01*
X79204600Y-100014600D02*
X82026300Y-100014600D01*
X79019700Y-100199500D02*
X79204600Y-100014600D01*
X79019700Y-103165000D02*
X79019700Y-100199500D01*
X85720800Y-101865000D02*
X85190200Y-101334400D01*
X87420000Y-101865000D02*
X85720800Y-101865000D01*
X75565000Y-119220000D02*
X75565000Y-118144700D01*
X76366400Y-117343300D02*
X76366400Y-115678500D01*
X75565000Y-118144700D02*
X76366400Y-117343300D01*
X80220000Y-107715000D02*
X81420300Y-107715000D01*
X80220000Y-107065000D02*
X81420300Y-107065000D01*
X81420300Y-107715000D02*
X81420300Y-107390000D01*
X81420300Y-107390000D02*
X81420300Y-107065000D01*
X81420300Y-107390000D02*
X81798300Y-107390000D01*
X80220000Y-105115000D02*
X81420300Y-105115000D01*
X81176600Y-104465000D02*
X81420300Y-104465000D01*
X81420300Y-104708700D02*
X81176600Y-104465000D01*
X81420300Y-105115000D02*
X81420300Y-104708700D01*
X81176600Y-104465000D02*
X80220000Y-104465000D01*
X81420300Y-104322700D02*
X81627600Y-104115400D01*
X81420300Y-104465000D02*
X81420300Y-104322700D01*
X87420000Y-105765000D02*
X82337400Y-105765000D01*
X73025000Y-119220000D02*
X73025000Y-118144700D01*
X72945600Y-118065300D02*
X72945600Y-117940300D01*
X73025000Y-118144700D02*
X72945600Y-118065300D01*
X54820000Y-101215000D02*
X56020300Y-101215000D01*
X54820000Y-100565000D02*
X55869500Y-100565000D01*
X56020300Y-101215000D02*
X56020300Y-100582000D01*
X56003300Y-100565000D02*
X56020300Y-100582000D01*
X55869500Y-100565000D02*
X56003300Y-100565000D01*
X67404700Y-89197600D02*
X67404700Y-88900000D01*
X56020300Y-100582000D02*
X67404700Y-89197600D01*
X68580000Y-88900000D02*
X67404700Y-88900000D01*
X54820000Y-103815000D02*
X56020300Y-103815000D01*
X54820000Y-103165000D02*
X56020300Y-103165000D01*
X56020300Y-103435900D02*
X56595100Y-103435900D01*
X56020300Y-103815000D02*
X56020300Y-103435900D01*
X56020300Y-103435900D02*
X56020300Y-103165000D01*
X64675300Y-88532600D02*
X64675300Y-88900000D01*
X65483200Y-87724700D02*
X64675300Y-88532600D01*
X69131400Y-87724700D02*
X65483200Y-87724700D01*
X69760200Y-88353500D02*
X69131400Y-87724700D01*
X69760200Y-91264700D02*
X69760200Y-88353500D01*
X60819700Y-100205200D02*
X69760200Y-91264700D01*
X60819700Y-101865000D02*
X60819700Y-100205200D01*
X62020000Y-101865000D02*
X60819700Y-101865000D01*
X63500000Y-88900000D02*
X64675300Y-88900000D01*
X57244700Y-88532700D02*
X57244700Y-88900000D01*
X55959000Y-87247000D02*
X57244700Y-88532700D01*
X50783200Y-87247000D02*
X55959000Y-87247000D01*
X49598700Y-88431500D02*
X50783200Y-87247000D01*
X49598700Y-104721600D02*
X49598700Y-88431500D01*
X54521500Y-109644400D02*
X49598700Y-104721600D01*
X61984700Y-109644400D02*
X54521500Y-109644400D01*
X70485000Y-118144700D02*
X61984700Y-109644400D01*
X70485000Y-119220000D02*
X70485000Y-118144700D01*
X58420000Y-88900000D02*
X57244700Y-88900000D01*
X54704700Y-88532600D02*
X54704700Y-88900000D01*
X53896800Y-87724700D02*
X54704700Y-88532600D01*
X52830100Y-87724700D02*
X53896800Y-87724700D01*
X52156700Y-88398100D02*
X52830100Y-87724700D01*
X52156700Y-105602000D02*
X52156700Y-88398100D01*
X53619700Y-107065000D02*
X52156700Y-105602000D01*
X54820000Y-107065000D02*
X53619700Y-107065000D01*
X55880000Y-88900000D02*
X54704700Y-88900000D01*
X56020300Y-107715000D02*
X56020300Y-107065000D01*
X54820000Y-107715000D02*
X56020300Y-107715000D01*
X54820000Y-107065000D02*
X56020300Y-107065000D01*
X53168500Y-90246800D02*
X53340000Y-90075300D01*
X53168500Y-104013800D02*
X53168500Y-90246800D01*
X53619700Y-104465000D02*
X53168500Y-104013800D01*
X54820000Y-104465000D02*
X53619700Y-104465000D01*
X53340000Y-88900000D02*
X53340000Y-90075300D01*
X56020300Y-105115000D02*
X56020300Y-104465000D01*
X54820000Y-105115000D02*
X56020300Y-105115000D01*
X54820000Y-104465000D02*
X56020300Y-104465000D01*
X50800000Y-105281200D02*
X50800000Y-88900000D01*
X53784200Y-108265400D02*
X50800000Y-105281200D01*
X57085600Y-108265400D02*
X53784200Y-108265400D01*
X59586000Y-105765000D02*
X57085600Y-108265400D01*
X62020000Y-105765000D02*
X59586000Y-105765000D01*
X67945000Y-119220000D02*
X67945000Y-118144700D01*
X61747900Y-118144700D02*
X67945000Y-118144700D01*
X45720000Y-102116800D02*
X61747900Y-118144700D01*
X45720000Y-88900000D02*
X45720000Y-102116800D01*
X232620000Y-100565000D02*
X233820300Y-100565000D01*
X232620000Y-101215000D02*
X233667700Y-101215000D01*
X233820300Y-101132000D02*
X233820300Y-100565000D01*
X233750700Y-101132000D02*
X233820300Y-101132000D01*
X233667700Y-101215000D02*
X233750700Y-101132000D01*
X234575300Y-101132000D02*
X236638200Y-103194900D01*
X233820300Y-101132000D02*
X234575300Y-101132000D01*
X232620000Y-103346000D02*
X231237800Y-103346000D01*
X232620000Y-103815000D02*
X232620000Y-103346000D01*
X232620000Y-103346000D02*
X232620000Y-103165000D01*
X242664700Y-88532600D02*
X242664700Y-88900000D01*
X241856800Y-87724700D02*
X242664700Y-88532600D01*
X238208600Y-87724700D02*
X241856800Y-87724700D01*
X237579800Y-88353500D02*
X238208600Y-87724700D01*
X237579800Y-90554600D02*
X237579800Y-88353500D01*
X241882000Y-94856800D02*
X237579800Y-90554600D01*
X241882000Y-101051100D02*
X241882000Y-94856800D01*
X241068100Y-101865000D02*
X241882000Y-101051100D01*
X239820000Y-101865000D02*
X241068100Y-101865000D01*
X243840000Y-88900000D02*
X242664700Y-88900000D01*
X227965000Y-119220000D02*
X227965000Y-118144700D01*
X238760000Y-88900000D02*
X239935300Y-88900000D01*
X239935300Y-89267400D02*
X239935300Y-88900000D01*
X240743200Y-90075300D02*
X239935300Y-89267400D01*
X244663000Y-90075300D02*
X240743200Y-90075300D01*
X256076600Y-101488900D02*
X244663000Y-90075300D01*
X256076600Y-108852300D02*
X256076600Y-101488900D01*
X254438900Y-110490000D02*
X256076600Y-108852300D01*
X251740000Y-110490000D02*
X254438900Y-110490000D01*
X244085300Y-118144700D02*
X251740000Y-110490000D01*
X227965000Y-118144700D02*
X244085300Y-118144700D01*
X233820300Y-107715000D02*
X233820300Y-107065000D01*
X232620000Y-107715000D02*
X233820300Y-107715000D01*
X232620000Y-107065000D02*
X233707700Y-107065000D01*
X233707700Y-107065000D02*
X233820300Y-107065000D01*
X234742200Y-106143100D02*
X233820300Y-107065000D01*
X234742200Y-104857900D02*
X234742200Y-106143100D01*
X235283600Y-104316500D02*
X234742200Y-104857900D01*
X235367500Y-104316500D02*
X235283600Y-104316500D01*
X232620000Y-105115000D02*
X233820300Y-105115000D01*
X232620000Y-104465000D02*
X233707700Y-104465000D01*
X233820300Y-104465000D02*
X233820300Y-105115000D01*
X233707700Y-104465000D02*
X233820300Y-104465000D01*
X233820300Y-104020600D02*
X233820300Y-104465000D01*
X234417200Y-103423700D02*
X233820300Y-104020600D01*
X236015600Y-105765000D02*
X235367500Y-105116900D01*
X239820000Y-105765000D02*
X236015600Y-105765000D01*
X225425000Y-119220000D02*
X225425000Y-118144700D01*
X225425000Y-118144700D02*
X225231500Y-117951200D01*
X207220000Y-101215000D02*
X208420300Y-101215000D01*
X207220000Y-100565000D02*
X208307700Y-100565000D01*
X208420300Y-101215000D02*
X208420300Y-100621100D01*
X208364200Y-100565000D02*
X208307700Y-100565000D01*
X208420300Y-100621100D02*
X208364200Y-100565000D01*
X208420300Y-100621100D02*
X208906000Y-100621100D01*
X207220000Y-103815000D02*
X208420300Y-103815000D01*
X207220000Y-103165000D02*
X208307700Y-103165000D01*
X208307700Y-103165000D02*
X208420300Y-103165000D01*
X208420300Y-103165000D02*
X208420300Y-103815000D01*
X209784800Y-103165000D02*
X210721600Y-102228200D01*
X208420300Y-103165000D02*
X209784800Y-103165000D01*
X222837700Y-101865000D02*
X222889500Y-101813200D01*
X214420000Y-101865000D02*
X222837700Y-101865000D01*
X222858700Y-118144700D02*
X222652000Y-117938000D01*
X222885000Y-118144700D02*
X222858700Y-118144700D01*
X222885000Y-119220000D02*
X222885000Y-118144700D01*
X207220000Y-107715000D02*
X208420300Y-107715000D01*
X207220000Y-107065000D02*
X208420300Y-107065000D01*
X208420300Y-107235600D02*
X209179800Y-107235600D01*
X208420300Y-107715000D02*
X208420300Y-107235600D01*
X208420300Y-107235600D02*
X208420300Y-107065000D01*
X208420300Y-105115000D02*
X208420300Y-104465000D01*
X207220000Y-105115000D02*
X208420300Y-105115000D01*
X207220000Y-104465000D02*
X207820200Y-104465000D01*
X207820200Y-104465000D02*
X208420300Y-104465000D01*
X208745100Y-104140200D02*
X209003800Y-104140200D01*
X208420300Y-104465000D02*
X208745100Y-104140200D01*
X214420000Y-105765000D02*
X213219700Y-105765000D01*
X213176000Y-105721300D02*
X209688800Y-105721300D01*
X213219700Y-105765000D02*
X213176000Y-105721300D01*
X220345000Y-119220000D02*
X220345000Y-118144700D01*
X219532200Y-118144700D02*
X219343100Y-117955600D01*
X220345000Y-118144700D02*
X219532200Y-118144700D01*
X185560300Y-101215000D02*
X185560300Y-100565000D01*
X184360000Y-101215000D02*
X185560300Y-101215000D01*
X185985200Y-101215000D02*
X186408600Y-101638400D01*
X185560300Y-101215000D02*
X185985200Y-101215000D01*
X184360000Y-100565000D02*
X185560300Y-100565000D01*
X184360000Y-103815000D02*
X185560300Y-103815000D01*
X184360000Y-103165000D02*
X185560300Y-103165000D01*
X185560300Y-103206800D02*
X187986500Y-103206800D01*
X185560300Y-103815000D02*
X185560300Y-103206800D01*
X185560300Y-103206800D02*
X185560300Y-103165000D01*
X191560000Y-101865000D02*
X192760300Y-101865000D01*
X192760300Y-101865000D02*
X192950100Y-101865000D01*
X179705000Y-119220000D02*
X179705000Y-118144700D01*
X179705000Y-118144700D02*
X180526300Y-118144700D01*
X184360000Y-107715000D02*
X185560300Y-107715000D01*
X184360000Y-107065000D02*
X185447700Y-107065000D01*
X185560300Y-107715000D02*
X185560300Y-107410100D01*
X185560300Y-107177600D02*
X185447700Y-107065000D01*
X185560300Y-107410100D02*
X185560300Y-107177600D01*
X185560300Y-107410100D02*
X186302700Y-107410100D01*
X184360000Y-105115000D02*
X184360000Y-104465000D01*
X184360000Y-104465000D02*
X183159700Y-104465000D01*
X183159700Y-104157600D02*
X182983100Y-103981000D01*
X183159700Y-104465000D02*
X183159700Y-104157600D01*
X191560000Y-105765000D02*
X187051300Y-105765000D01*
X177165000Y-119220000D02*
X177165000Y-118144700D01*
X177165000Y-118144700D02*
X176979100Y-117958800D01*
X158960000Y-101215000D02*
X160160300Y-101215000D01*
X158960000Y-100565000D02*
X160160300Y-100565000D01*
X160160300Y-101215000D02*
X160160300Y-100565000D01*
X161624900Y-102679600D02*
X162439500Y-102679600D01*
X160160300Y-101215000D02*
X161624900Y-102679600D01*
X158960000Y-103165000D02*
X157759700Y-103165000D01*
X160160300Y-103815000D02*
X160160300Y-103165000D01*
X158960000Y-103815000D02*
X160160300Y-103815000D01*
X158960000Y-103165000D02*
X160160300Y-103165000D01*
X160522100Y-100014700D02*
X161689600Y-101182200D01*
X157950200Y-100014700D02*
X160522100Y-100014700D01*
X157759700Y-100205200D02*
X157950200Y-100014700D01*
X157759700Y-103165000D02*
X157759700Y-100205200D01*
X166160000Y-101865000D02*
X164959700Y-101865000D01*
X164959700Y-99754100D02*
X164541400Y-99335800D01*
X164959700Y-101865000D02*
X164959700Y-99754100D01*
X174625000Y-118134900D02*
X172969800Y-116479700D01*
X174625000Y-119220000D02*
X174625000Y-118134900D01*
X158960000Y-107715000D02*
X160160300Y-107715000D01*
X158960000Y-107065000D02*
X160160300Y-107065000D01*
X160160300Y-107715000D02*
X160160300Y-107390000D01*
X160160300Y-107390000D02*
X160160300Y-107065000D01*
X160160300Y-107390000D02*
X160589000Y-107390000D01*
X160160300Y-105115000D02*
X160160300Y-104465000D01*
X158960000Y-105115000D02*
X160160300Y-105115000D01*
X158960000Y-104465000D02*
X160047700Y-104465000D01*
X160047700Y-104465000D02*
X160160300Y-104465000D01*
X160160300Y-104465000D02*
X160367200Y-104465000D01*
X166160000Y-105765000D02*
X164959700Y-105765000D01*
X161059600Y-105765000D02*
X160989100Y-105835500D01*
X164959700Y-105765000D02*
X161059600Y-105765000D01*
X172085000Y-119220000D02*
X172085000Y-118144700D01*
X172085000Y-118144700D02*
X169654000Y-118144700D01*
X254000000Y-101600000D02*
X252824700Y-101600000D01*
X251259700Y-103165000D02*
X239820000Y-103165000D01*
X252824700Y-101600000D02*
X251259700Y-103165000D01*
X67945000Y-124620000D02*
X67945000Y-123544700D01*
X75565000Y-124620000D02*
X75565000Y-123657300D01*
X191560000Y-103165000D02*
X190359700Y-103165000D01*
X214420000Y-103165000D02*
X213219700Y-103165000D01*
X221158500Y-126508800D02*
X220345000Y-125695300D01*
X227151500Y-126508800D02*
X221158500Y-126508800D01*
X227965000Y-125695300D02*
X227151500Y-126508800D01*
X227965000Y-124620000D02*
X227965000Y-125695300D01*
X116205000Y-124620000D02*
X116205000Y-123657300D01*
X116205000Y-123657300D02*
X116205000Y-123544700D01*
X72590200Y-123544700D02*
X75565000Y-123544700D01*
X72399600Y-123735300D02*
X72590200Y-123544700D01*
X72399600Y-125493600D02*
X72399600Y-123735300D01*
X72197800Y-125695400D02*
X72399600Y-125493600D01*
X71263100Y-125695400D02*
X72197800Y-125695400D01*
X71118000Y-125550300D02*
X71263100Y-125695400D01*
X71118000Y-123649900D02*
X71118000Y-125550300D01*
X71012800Y-123544700D02*
X71118000Y-123649900D01*
X67945000Y-123544700D02*
X71012800Y-123544700D01*
X75565000Y-123544700D02*
X75565000Y-123657300D01*
X117290000Y-122459700D02*
X118838600Y-122459700D01*
X116205000Y-123544700D02*
X117290000Y-122459700D01*
X176413600Y-125695300D02*
X172085000Y-125695300D01*
X176539600Y-125569300D02*
X176413600Y-125695300D01*
X176539600Y-123678100D02*
X176539600Y-125569300D01*
X176673100Y-123544600D02*
X176539600Y-123678100D01*
X177607900Y-123544600D02*
X176673100Y-123544600D01*
X177809700Y-123746400D02*
X177607900Y-123544600D01*
X177809700Y-125504800D02*
X177809700Y-123746400D01*
X178000200Y-125695300D02*
X177809700Y-125504800D01*
X179705000Y-125695300D02*
X178000200Y-125695300D01*
X179705000Y-124620000D02*
X179705000Y-125695300D01*
X189540400Y-103165000D02*
X190359700Y-103165000D01*
X188343200Y-101967800D02*
X189540400Y-103165000D01*
X188259300Y-101967800D02*
X188343200Y-101967800D01*
X185855900Y-99564400D02*
X188259300Y-101967800D01*
X183163600Y-99564400D02*
X185855900Y-99564400D01*
X179563000Y-103165000D02*
X183163600Y-99564400D01*
X166160000Y-103165000D02*
X179563000Y-103165000D01*
X220345000Y-124681800D02*
X220345000Y-125695300D01*
X220345000Y-124681800D02*
X220345000Y-124620000D01*
X220345000Y-123544700D02*
X179705000Y-123544700D01*
X220345000Y-124620000D02*
X220345000Y-123544700D01*
X179705000Y-124620000D02*
X179705000Y-123544700D01*
X116205000Y-123544700D02*
X75565000Y-123544700D01*
X166160000Y-103165000D02*
X164959700Y-103165000D01*
X209565800Y-99511100D02*
X213219700Y-103165000D01*
X206076900Y-99511100D02*
X209565800Y-99511100D01*
X202423000Y-103165000D02*
X206076900Y-99511100D01*
X191560000Y-103165000D02*
X202423000Y-103165000D01*
X87420000Y-103165000D02*
X86219700Y-103165000D01*
X172085000Y-125157600D02*
X172085000Y-125695300D01*
X151305700Y-103165000D02*
X135680000Y-103165000D01*
X164959700Y-103165000D02*
X164959700Y-102916700D01*
X135680000Y-103165000D02*
X134479700Y-103165000D01*
X86136500Y-103165000D02*
X86219700Y-103165000D01*
X84564900Y-101593400D02*
X86136500Y-103165000D01*
X84564900Y-101031900D02*
X84564900Y-101593400D01*
X82607300Y-99074300D02*
X84564900Y-101031900D01*
X78792400Y-99074300D02*
X82607300Y-99074300D01*
X74701700Y-103165000D02*
X78792400Y-99074300D01*
X62020000Y-103165000D02*
X74701700Y-103165000D01*
X120976400Y-103165000D02*
X110280000Y-103165000D01*
X121626400Y-102515000D02*
X120976400Y-103165000D01*
X91073200Y-103165000D02*
X87420000Y-103165000D01*
X94726500Y-99511700D02*
X91073200Y-103165000D01*
X105426400Y-99511700D02*
X94726500Y-99511700D01*
X109079700Y-103165000D02*
X105426400Y-99511700D01*
X110280000Y-103165000D02*
X109079700Y-103165000D01*
X124577000Y-99564400D02*
X121626400Y-102515000D01*
X130879100Y-99564400D02*
X124577000Y-99564400D01*
X134479700Y-103165000D02*
X130879100Y-99564400D01*
X172085000Y-125157600D02*
X172085000Y-124620000D01*
X172085000Y-124620000D02*
X172085000Y-123544700D01*
X124501500Y-124620000D02*
X123825000Y-124620000D01*
X124631900Y-124489600D02*
X124501500Y-124620000D01*
X125155600Y-124489600D02*
X124631900Y-124489600D01*
X126100500Y-123544700D02*
X125155600Y-124489600D01*
X172085000Y-123544700D02*
X126100500Y-123544700D01*
X226517500Y-103165000D02*
X214420000Y-103165000D01*
X230169200Y-99513300D02*
X226517500Y-103165000D01*
X234481900Y-99513300D02*
X230169200Y-99513300D01*
X238133600Y-103165000D02*
X234481900Y-99513300D01*
X239820000Y-103165000D02*
X238133600Y-103165000D01*
X155356700Y-99114000D02*
X151305700Y-103165000D01*
X161157000Y-99114000D02*
X155356700Y-99114000D01*
X164959700Y-102916700D02*
X161157000Y-99114000D01*
X254000000Y-106680000D02*
X252824700Y-106680000D01*
X138730700Y-108265400D02*
X136880300Y-106415000D01*
X161760100Y-108265400D02*
X138730700Y-108265400D01*
X163610500Y-106415000D02*
X161760100Y-108265400D01*
X166160000Y-106415000D02*
X163610500Y-106415000D01*
X180876100Y-101215000D02*
X166160000Y-101215000D01*
X182977000Y-99114100D02*
X180876100Y-101215000D01*
X186042500Y-99114100D02*
X182977000Y-99114100D01*
X188143400Y-101215000D02*
X186042500Y-99114100D01*
X191560000Y-101215000D02*
X188143400Y-101215000D01*
X136280200Y-106415000D02*
X136880300Y-106415000D01*
X252559700Y-106415000D02*
X239820000Y-106415000D01*
X252824700Y-106680000D02*
X252559700Y-106415000D01*
X223224300Y-106415000D02*
X214420000Y-106415000D01*
X225074700Y-108265400D02*
X223224300Y-106415000D01*
X235066900Y-108265400D02*
X225074700Y-108265400D01*
X236917300Y-106415000D02*
X235066900Y-108265400D01*
X239820000Y-106415000D02*
X236917300Y-106415000D01*
X214420000Y-106415000D02*
X213219700Y-106415000D01*
X110280000Y-101215000D02*
X111480300Y-101215000D01*
X196604400Y-101215000D02*
X191560000Y-101215000D01*
X198788200Y-99031200D02*
X196604400Y-101215000D01*
X211035900Y-99031200D02*
X198788200Y-99031200D01*
X213219700Y-101215000D02*
X211035900Y-99031200D01*
X214420000Y-101215000D02*
X213219700Y-101215000D01*
X87420000Y-101215000D02*
X86219700Y-101215000D01*
X64406800Y-106415000D02*
X62020000Y-106415000D01*
X66257200Y-108265400D02*
X64406800Y-106415000D01*
X82666900Y-108265400D02*
X66257200Y-108265400D01*
X84517300Y-106415000D02*
X82666900Y-108265400D01*
X87420000Y-106415000D02*
X84517300Y-106415000D01*
X83612700Y-98608000D02*
X86219700Y-101215000D01*
X78517200Y-98608000D02*
X83612700Y-98608000D01*
X75910200Y-101215000D02*
X78517200Y-98608000D01*
X62020000Y-101215000D02*
X75910200Y-101215000D01*
X89865500Y-106415000D02*
X87420000Y-106415000D01*
X90645500Y-105635000D02*
X89865500Y-106415000D01*
X93275900Y-108265400D02*
X90645500Y-105635000D01*
X105526900Y-108265400D02*
X93275900Y-108265400D01*
X107377300Y-106415000D02*
X105526900Y-108265400D01*
X110280000Y-106415000D02*
X107377300Y-106415000D01*
X90190600Y-101215000D02*
X90636800Y-101661200D01*
X87420000Y-101215000D02*
X90190600Y-101215000D01*
X108018100Y-101215000D02*
X110280000Y-101215000D01*
X105864400Y-99061300D02*
X108018100Y-101215000D01*
X93236700Y-99061300D02*
X105864400Y-99061300D01*
X90636800Y-101661200D02*
X93236700Y-99061300D01*
X113581200Y-99114100D02*
X111480300Y-101215000D01*
X132170600Y-99114100D02*
X113581200Y-99114100D01*
X134271500Y-101215000D02*
X132170600Y-99114100D01*
X135680000Y-101215000D02*
X134271500Y-101215000D01*
X239820000Y-101215000D02*
X241020300Y-101215000D01*
X136280200Y-106415000D02*
X135680000Y-106415000D01*
X112666800Y-106415000D02*
X110280000Y-106415000D01*
X114517200Y-108265400D02*
X112666800Y-106415000D01*
X131021700Y-108265400D02*
X114517200Y-108265400D01*
X132872100Y-106415000D02*
X131021700Y-108265400D01*
X135680000Y-106415000D02*
X132872100Y-106415000D01*
X241020300Y-101021800D02*
X241225300Y-100816800D01*
X241020300Y-101215000D02*
X241020300Y-101021800D01*
X194057600Y-106415000D02*
X191560000Y-106415000D01*
X195908000Y-108265400D02*
X194057600Y-106415000D01*
X211369300Y-108265400D02*
X195908000Y-108265400D01*
X213219700Y-106415000D02*
X211369300Y-108265400D01*
X168546800Y-106415000D02*
X166160000Y-106415000D01*
X170397200Y-108265400D02*
X168546800Y-106415000D01*
X186806900Y-108265400D02*
X170397200Y-108265400D01*
X188657300Y-106415000D02*
X186806900Y-108265400D01*
X191560000Y-106415000D02*
X188657300Y-106415000D01*
X219719200Y-101215000D02*
X214420000Y-101215000D01*
X221914900Y-99019300D02*
X219719200Y-101215000D01*
X235095600Y-99019300D02*
X221914900Y-99019300D01*
X237291300Y-101215000D02*
X235095600Y-99019300D01*
X239820000Y-101215000D02*
X237291300Y-101215000D01*
X135680000Y-103815000D02*
X134479700Y-103815000D01*
X87420000Y-103815000D02*
X86219700Y-103815000D01*
X166160000Y-103815000D02*
X164959700Y-103815000D01*
X189553500Y-103815000D02*
X191560000Y-103815000D01*
X188156600Y-102418100D02*
X189553500Y-103815000D01*
X188072700Y-102418100D02*
X188156600Y-102418100D01*
X185669300Y-100014700D02*
X188072700Y-102418100D01*
X183350200Y-100014700D02*
X185669300Y-100014700D01*
X179549900Y-103815000D02*
X183350200Y-100014700D01*
X166160000Y-103815000D02*
X179549900Y-103815000D01*
X162799100Y-101654400D02*
X164959700Y-103815000D01*
X162799100Y-101407200D02*
X162799100Y-101654400D01*
X160956300Y-99564400D02*
X162799100Y-101407200D01*
X157763600Y-99564400D02*
X160956300Y-99564400D01*
X153513100Y-103814900D02*
X157763600Y-99564400D01*
X153513100Y-103815000D02*
X153513100Y-103814900D01*
X135680000Y-103815000D02*
X153513100Y-103815000D01*
X209369200Y-99964500D02*
X213219700Y-103815000D01*
X206260400Y-99964500D02*
X209369200Y-99964500D01*
X202409900Y-103815000D02*
X206260400Y-99964500D01*
X191560000Y-103815000D02*
X202409900Y-103815000D01*
X109005900Y-103815000D02*
X110280000Y-103815000D01*
X105196500Y-100005600D02*
X109005900Y-103815000D01*
X102029200Y-100005600D02*
X105196500Y-100005600D01*
X98219800Y-103815000D02*
X102029200Y-100005600D01*
X87420000Y-103815000D02*
X98219800Y-103815000D01*
X123669900Y-103815000D02*
X110280000Y-103815000D01*
X127470200Y-100014700D02*
X123669900Y-103815000D01*
X130679400Y-100014700D02*
X127470200Y-100014700D01*
X134479700Y-103815000D02*
X130679400Y-100014700D01*
X74688600Y-103815000D02*
X62020000Y-103815000D01*
X78979000Y-99524600D02*
X74688600Y-103815000D01*
X82420700Y-99524600D02*
X78979000Y-99524600D01*
X84045600Y-101149500D02*
X82420700Y-99524600D01*
X84045600Y-101711000D02*
X84045600Y-101149500D01*
X86149600Y-103815000D02*
X84045600Y-101711000D01*
X86219700Y-103815000D02*
X86149600Y-103815000D01*
X213819900Y-103815000D02*
X213219700Y-103815000D01*
X213819900Y-103815000D02*
X214420000Y-103815000D01*
X251729400Y-103815000D02*
X239820000Y-103815000D01*
X252605900Y-102938500D02*
X251729400Y-103815000D01*
X254460800Y-102938500D02*
X252605900Y-102938500D01*
X255626300Y-104104000D02*
X254460800Y-102938500D01*
X255626300Y-107593700D02*
X255626300Y-104104000D01*
X254000000Y-109220000D02*
X255626300Y-107593700D01*
X227710100Y-103815000D02*
X214420000Y-103815000D01*
X231510500Y-100014600D02*
X227710100Y-103815000D01*
X234346300Y-100014600D02*
X231510500Y-100014600D01*
X238146700Y-103815000D02*
X234346300Y-100014600D01*
X239820000Y-103815000D02*
X238146700Y-103815000D01*
X222885000Y-124620000D02*
X222885000Y-125695300D01*
X222885000Y-125842700D02*
X222885000Y-125695300D01*
X222924200Y-125881900D02*
X222885000Y-125842700D01*
X118745000Y-124620000D02*
X118745000Y-123544700D01*
X70485000Y-124620000D02*
X70485000Y-125695300D01*
X119119200Y-123170500D02*
X118745000Y-123544700D01*
X119483600Y-123170500D02*
X119119200Y-123170500D01*
X174612300Y-123544700D02*
X174625000Y-123544700D01*
X174393300Y-123325700D02*
X174612300Y-123544700D01*
X174625000Y-124620000D02*
X174625000Y-123544700D01*
X117032100Y-123544700D02*
X118745000Y-123544700D01*
X116830400Y-123746400D02*
X117032100Y-123544700D01*
X116830400Y-125582200D02*
X116830400Y-123746400D01*
X115788600Y-126624000D02*
X116830400Y-125582200D01*
X71413700Y-126624000D02*
X115788600Y-126624000D01*
X70485000Y-125695300D02*
X71413700Y-126624000D01*
X69215000Y-124620000D02*
X69215000Y-125695300D01*
X117475000Y-124620000D02*
X117475000Y-125695300D01*
X173355000Y-124620000D02*
X173355000Y-123544700D01*
X222453000Y-123544700D02*
X222886500Y-123111200D01*
X221615000Y-123544700D02*
X222453000Y-123544700D01*
X221615000Y-124620000D02*
X221615000Y-123544700D01*
X173003800Y-123193500D02*
X173355000Y-123544700D01*
X120531800Y-125695300D02*
X117475000Y-125695300D01*
X120659600Y-125567500D02*
X120531800Y-125695300D01*
X120659600Y-123648700D02*
X120659600Y-125567500D01*
X121284000Y-123024300D02*
X120659600Y-123648700D01*
X172834600Y-123024300D02*
X121284000Y-123024300D01*
X173003800Y-123193500D02*
X172834600Y-123024300D01*
X116096000Y-127074300D02*
X117475000Y-125695300D01*
X70594000Y-127074300D02*
X116096000Y-127074300D01*
X69215000Y-125695300D02*
X70594000Y-127074300D01*
X214420000Y-107715000D02*
X213219700Y-107715000D01*
X212197700Y-108737000D02*
X213219700Y-107715000D01*
X193782300Y-108737000D02*
X212197700Y-108737000D01*
X192760300Y-107715000D02*
X193782300Y-108737000D01*
X191560000Y-107065000D02*
X192760300Y-107065000D01*
X192516600Y-107715000D02*
X192760300Y-107715000D01*
X192760300Y-107471300D02*
X192516600Y-107715000D01*
X192760300Y-107065000D02*
X192760300Y-107471300D01*
X89644400Y-108739100D02*
X88620300Y-107715000D01*
X108055600Y-108739100D02*
X89644400Y-108739100D01*
X109079700Y-107715000D02*
X108055600Y-108739100D01*
X110280000Y-107715000D02*
X109079700Y-107715000D01*
X110280000Y-107065000D02*
X111480300Y-107065000D01*
X166160000Y-107715000D02*
X164959700Y-107715000D01*
X166160000Y-107065000D02*
X167360300Y-107065000D01*
X214420000Y-107065000D02*
X215620300Y-107065000D01*
X214420000Y-107715000D02*
X215620300Y-107715000D01*
X239820000Y-107715000D02*
X238619700Y-107715000D01*
X215620300Y-107065000D02*
X215620300Y-107715000D01*
X216686600Y-108781300D02*
X215620300Y-107715000D01*
X237553400Y-108781300D02*
X216686600Y-108781300D01*
X238619700Y-107715000D02*
X237553400Y-108781300D01*
X62020000Y-107065000D02*
X63220300Y-107065000D01*
X63220300Y-107065000D02*
X63220300Y-107715000D01*
X64871200Y-108715900D02*
X63220300Y-107065000D01*
X85218800Y-108715900D02*
X64871200Y-108715900D01*
X86219700Y-107715000D02*
X85218800Y-108715900D01*
X87420000Y-107715000D02*
X86219700Y-107715000D01*
X62020000Y-107715000D02*
X63220300Y-107715000D01*
X87420000Y-107065000D02*
X88020200Y-107065000D01*
X87420000Y-107715000D02*
X88620300Y-107715000D01*
X88620300Y-107302200D02*
X88620300Y-107715000D01*
X88383100Y-107065000D02*
X88620300Y-107302200D01*
X88020200Y-107065000D02*
X88383100Y-107065000D01*
X135680000Y-100565000D02*
X134479700Y-100565000D01*
X191560000Y-100565000D02*
X190359700Y-100565000D01*
X166160000Y-100565000D02*
X167360300Y-100565000D01*
X135680000Y-100565000D02*
X136880300Y-100565000D01*
X167360300Y-98661500D02*
X167360300Y-100565000D01*
X188456200Y-98661500D02*
X167360300Y-98661500D01*
X190359700Y-100565000D02*
X188456200Y-98661500D01*
X192516600Y-107715000D02*
X191560000Y-107715000D01*
X166160000Y-107715000D02*
X167360300Y-107715000D01*
X191560000Y-107715000D02*
X190359700Y-107715000D01*
X167360300Y-107065000D02*
X167360300Y-107715000D01*
X168394600Y-108749300D02*
X167360300Y-107715000D01*
X189325400Y-108749300D02*
X168394600Y-108749300D01*
X190359700Y-107715000D02*
X189325400Y-108749300D01*
X194801200Y-98524100D02*
X192760300Y-100565000D01*
X211178800Y-98524100D02*
X194801200Y-98524100D01*
X213219700Y-100565000D02*
X211178800Y-98524100D01*
X214420000Y-100565000D02*
X213219700Y-100565000D01*
X191560000Y-100565000D02*
X192760300Y-100565000D01*
X239820000Y-100565000D02*
X238619700Y-100565000D01*
X214420000Y-100565000D02*
X215620300Y-100565000D01*
X239820000Y-107065000D02*
X241020300Y-107065000D01*
X239820000Y-107715000D02*
X241020300Y-107715000D01*
X241020300Y-107715000D02*
X241020300Y-107065000D01*
X241420300Y-108115000D02*
X241020300Y-107715000D01*
X242749700Y-108115000D02*
X241420300Y-108115000D01*
X138783800Y-98661500D02*
X136880300Y-100565000D01*
X167360300Y-98661500D02*
X138783800Y-98661500D01*
X110880200Y-100565000D02*
X111480300Y-100565000D01*
X65627700Y-98157600D02*
X63220300Y-100565000D01*
X83812300Y-98157600D02*
X65627700Y-98157600D01*
X86219700Y-100565000D02*
X83812300Y-98157600D01*
X62020000Y-100565000D02*
X63220300Y-100565000D01*
X110880200Y-100565000D02*
X110280000Y-100565000D01*
X90574400Y-98610900D02*
X88620300Y-100565000D01*
X107125600Y-98610900D02*
X90574400Y-98610900D01*
X109079700Y-100565000D02*
X107125600Y-98610900D01*
X110280000Y-100565000D02*
X109079700Y-100565000D01*
X87420000Y-100565000D02*
X88620300Y-100565000D01*
X110280000Y-107715000D02*
X111480300Y-107715000D01*
X135680000Y-107715000D02*
X134479700Y-107715000D01*
X111480300Y-107065000D02*
X111480300Y-107715000D01*
X112518300Y-108753000D02*
X111480300Y-107715000D01*
X133441700Y-108753000D02*
X112518300Y-108753000D01*
X134479700Y-107715000D02*
X133441700Y-108753000D01*
X113390900Y-98654400D02*
X111480300Y-100565000D01*
X132569100Y-98654400D02*
X113390900Y-98654400D01*
X134479700Y-100565000D02*
X132569100Y-98654400D01*
X135680000Y-107065000D02*
X136280200Y-107065000D01*
X135680000Y-107715000D02*
X136880300Y-107715000D01*
X136880300Y-107302200D02*
X136880300Y-107715000D01*
X136643100Y-107065000D02*
X136880300Y-107302200D01*
X136280200Y-107065000D02*
X136643100Y-107065000D01*
X163942900Y-108731800D02*
X164959700Y-107715000D01*
X137897100Y-108731800D02*
X163942900Y-108731800D01*
X136880300Y-107715000D02*
X137897100Y-108731800D01*
X87420000Y-100565000D02*
X86219700Y-100565000D01*
X238370600Y-100315900D02*
X238144500Y-100315900D01*
X238619700Y-100565000D02*
X238370600Y-100315900D01*
X217619100Y-98566200D02*
X215620300Y-100565000D01*
X236394800Y-98566200D02*
X217619100Y-98566200D01*
X238144500Y-100315900D02*
X236394800Y-98566200D01*
X225425000Y-124620000D02*
X225425000Y-123544700D01*
X254000000Y-119380000D02*
X252824700Y-119380000D01*
X229589700Y-119380000D02*
X252824700Y-119380000D01*
X225425000Y-123544700D02*
X229589700Y-119380000D01*
X66675000Y-124620000D02*
X66675000Y-125695300D01*
X254000000Y-121920000D02*
X252824700Y-121920000D01*
X247220100Y-127524600D02*
X252824700Y-121920000D01*
X68504300Y-127524600D02*
X247220100Y-127524600D01*
X66675000Y-125695300D02*
X68504300Y-127524600D01*
X62020000Y-105115000D02*
X64094400Y-105115000D01*
X69209100Y-118138800D02*
X69209100Y-117933800D01*
X69215000Y-118144700D02*
X69209100Y-118138800D01*
X69215000Y-119220000D02*
X69215000Y-118144700D01*
X64096200Y-102515000D02*
X62020000Y-102515000D01*
X71755000Y-119220000D02*
X71755000Y-118144700D01*
X71755000Y-118144700D02*
X71950800Y-117948900D01*
X84863800Y-105115000D02*
X87420000Y-105115000D01*
X74788100Y-118144700D02*
X74890400Y-118042400D01*
X74295000Y-118144700D02*
X74788100Y-118144700D01*
X74295000Y-119220000D02*
X74295000Y-118144700D01*
X73025000Y-124620000D02*
X73025000Y-125695300D01*
X114935000Y-124620000D02*
X114935000Y-125695300D01*
X114484800Y-126145500D02*
X114935000Y-125695300D01*
X114484800Y-126145600D02*
X114484800Y-126145500D01*
X73475300Y-126145600D02*
X114484800Y-126145600D01*
X73025000Y-125695300D02*
X73475300Y-126145600D01*
X76543500Y-125175200D02*
X76543500Y-124960300D01*
X76023400Y-125695300D02*
X76543500Y-125175200D01*
X74295000Y-125695300D02*
X76023400Y-125695300D01*
X87420000Y-102515000D02*
X88620300Y-102515000D01*
X74295000Y-124620000D02*
X74295000Y-125695300D01*
X88620300Y-102515000D02*
X88812300Y-102515000D01*
X117475000Y-119220000D02*
X117475000Y-118144700D01*
X110280000Y-105115000D02*
X112353300Y-105115000D01*
X116999100Y-117668800D02*
X116999100Y-114589700D01*
X117475000Y-118144700D02*
X116999100Y-117668800D01*
X111700100Y-102515000D02*
X110280000Y-102515000D01*
X120015000Y-119220000D02*
X120015000Y-118144700D01*
X117993200Y-116122900D02*
X117624500Y-116122900D01*
X120015000Y-118144700D02*
X117993200Y-116122900D01*
X134201700Y-105115000D02*
X135680000Y-105115000D01*
X122555000Y-119220000D02*
X122555000Y-118144700D01*
X123078700Y-118144700D02*
X123167000Y-118056400D01*
X122555000Y-118144700D02*
X123078700Y-118144700D01*
X170815000Y-125695300D02*
X121285000Y-125695300D01*
X170815000Y-124620000D02*
X170815000Y-125695300D01*
X121285000Y-124620000D02*
X121285000Y-125695300D01*
X136900400Y-102494900D02*
X136880300Y-102515000D01*
X137097600Y-102494900D02*
X136900400Y-102494900D01*
X135680000Y-102515000D02*
X136880300Y-102515000D01*
X124829200Y-123544700D02*
X124963700Y-123679200D01*
X122555000Y-123544700D02*
X124829200Y-123544700D01*
X122555000Y-124620000D02*
X122555000Y-123544700D01*
X173386500Y-118113200D02*
X173386500Y-117968600D01*
X173355000Y-118144700D02*
X173386500Y-118113200D01*
X168040000Y-105115000D02*
X166160000Y-105115000D01*
X173355000Y-119220000D02*
X173355000Y-118144700D01*
X167810600Y-102515000D02*
X166160000Y-102515000D01*
X175895000Y-119220000D02*
X175895000Y-117969200D01*
X178435000Y-119220000D02*
X178435000Y-118144700D01*
X191560000Y-105115000D02*
X190359700Y-105115000D01*
X186191100Y-105732600D02*
X186191100Y-106406700D01*
X186808700Y-105115000D02*
X186191100Y-105732600D01*
X190359700Y-105115000D02*
X186808700Y-105115000D01*
X178171000Y-118144700D02*
X177988800Y-117962500D01*
X178435000Y-118144700D02*
X178171000Y-118144700D01*
X219075000Y-124620000D02*
X219075000Y-125695300D01*
X177165000Y-124620000D02*
X177165000Y-125695300D01*
X218624700Y-126145600D02*
X219075000Y-125695300D01*
X177615300Y-126145600D02*
X218624700Y-126145600D01*
X177165000Y-125695300D02*
X177615300Y-126145600D01*
X190303600Y-102458900D02*
X190359700Y-102515000D01*
X189718600Y-102458900D02*
X190303600Y-102458900D01*
X191560000Y-102515000D02*
X190359700Y-102515000D01*
X178435000Y-123460500D02*
X179876900Y-122018600D01*
X178435000Y-124620000D02*
X178435000Y-123460500D01*
X213197800Y-105093100D02*
X213219700Y-105115000D01*
X212254000Y-105093100D02*
X213197800Y-105093100D01*
X214420000Y-105115000D02*
X213219700Y-105115000D01*
X221615000Y-119220000D02*
X221615000Y-118144700D01*
X221585400Y-118144700D02*
X221400600Y-117959900D01*
X221615000Y-118144700D02*
X221585400Y-118144700D01*
X221914800Y-116546000D02*
X221914800Y-116545900D01*
X222556300Y-116546000D02*
X221914800Y-116546000D01*
X224155000Y-118144700D02*
X222556300Y-116546000D01*
X216359000Y-102515000D02*
X214420000Y-102515000D01*
X224155000Y-119220000D02*
X224155000Y-118144700D01*
X226612700Y-118144700D02*
X226190100Y-117722100D01*
X226695000Y-118144700D02*
X226612700Y-118144700D01*
X238612100Y-105107400D02*
X238619700Y-105115000D01*
X237211000Y-105107400D02*
X238612100Y-105107400D01*
X239820000Y-105115000D02*
X238619700Y-105115000D01*
X226695000Y-119220000D02*
X226695000Y-118144700D01*
X239820000Y-102515000D02*
X238619700Y-102515000D01*
X226763100Y-123544700D02*
X227856600Y-122451200D01*
X226695000Y-123544700D02*
X226763100Y-123544700D01*
X226695000Y-124620000D02*
X226695000Y-123544700D01*
X238619700Y-102515000D02*
X238438600Y-102515000D01*
M02*
