G04 #@! TF.FileFunction,Soldermask,Top*
%FSLAX46Y46*%
G04 Gerber Fmt 4.6, Leading zero omitted, Abs format (unit mm)*
G04 Created by KiCad (PCBNEW 4.0.7) date *
%MOMM*%
%LPD*%
G01*
G04 APERTURE LIST*
%ADD10C,0.100000*%
%ADD11R,2.100000X2.100000*%
%ADD12O,2.100000X2.100000*%
%ADD13R,2.150000X0.850000*%
%ADD14R,1.000000X1.900000*%
G04 APERTURE END LIST*
D10*
D11*
X144780000Y-88900000D03*
D12*
X142240000Y-88900000D03*
X139700000Y-88900000D03*
X137160000Y-88900000D03*
X134620000Y-88900000D03*
X132080000Y-88900000D03*
X129540000Y-88900000D03*
X127000000Y-88900000D03*
X124460000Y-88900000D03*
X121920000Y-88900000D03*
X119380000Y-88900000D03*
X116840000Y-88900000D03*
X114300000Y-88900000D03*
X111760000Y-88900000D03*
X109220000Y-88900000D03*
X106680000Y-88900000D03*
X104140000Y-88900000D03*
X101600000Y-88900000D03*
X99060000Y-88900000D03*
X96520000Y-88900000D03*
X93980000Y-88900000D03*
X91440000Y-88900000D03*
X88900000Y-88900000D03*
X86360000Y-88900000D03*
X83820000Y-88900000D03*
X81280000Y-88900000D03*
X78740000Y-88900000D03*
X76200000Y-88900000D03*
X73660000Y-88900000D03*
X71120000Y-88900000D03*
X68580000Y-88900000D03*
X66040000Y-88900000D03*
X63500000Y-88900000D03*
X60960000Y-88900000D03*
X58420000Y-88900000D03*
X55880000Y-88900000D03*
X53340000Y-88900000D03*
X50800000Y-88900000D03*
X48260000Y-88900000D03*
X45720000Y-88900000D03*
D11*
X248920000Y-88900000D03*
D12*
X246380000Y-88900000D03*
X243840000Y-88900000D03*
X241300000Y-88900000D03*
X238760000Y-88900000D03*
X236220000Y-88900000D03*
X233680000Y-88900000D03*
X231140000Y-88900000D03*
X228600000Y-88900000D03*
X226060000Y-88900000D03*
X223520000Y-88900000D03*
X220980000Y-88900000D03*
X218440000Y-88900000D03*
X215900000Y-88900000D03*
X213360000Y-88900000D03*
X210820000Y-88900000D03*
X208280000Y-88900000D03*
X205740000Y-88900000D03*
X203200000Y-88900000D03*
X200660000Y-88900000D03*
X198120000Y-88900000D03*
X195580000Y-88900000D03*
X193040000Y-88900000D03*
X190500000Y-88900000D03*
X187960000Y-88900000D03*
X185420000Y-88900000D03*
X182880000Y-88900000D03*
X180340000Y-88900000D03*
X177800000Y-88900000D03*
X175260000Y-88900000D03*
X172720000Y-88900000D03*
X170180000Y-88900000D03*
X167640000Y-88900000D03*
X165100000Y-88900000D03*
X162560000Y-88900000D03*
X160020000Y-88900000D03*
X157480000Y-88900000D03*
X154940000Y-88900000D03*
X152400000Y-88900000D03*
X149860000Y-88900000D03*
D11*
X40640000Y-101600000D03*
D12*
X40640000Y-104140000D03*
X40640000Y-106680000D03*
X40640000Y-109220000D03*
X40640000Y-111760000D03*
X40640000Y-114300000D03*
X40640000Y-116840000D03*
X40640000Y-119380000D03*
X40640000Y-121920000D03*
D11*
X254000000Y-101600000D03*
D12*
X254000000Y-104140000D03*
X254000000Y-106680000D03*
X254000000Y-109220000D03*
X254000000Y-111760000D03*
X254000000Y-114300000D03*
X254000000Y-116840000D03*
X254000000Y-119380000D03*
X254000000Y-121920000D03*
D13*
X54820000Y-100565000D03*
X54820000Y-101215000D03*
X54820000Y-101865000D03*
X54820000Y-102515000D03*
X54820000Y-103165000D03*
X54820000Y-103815000D03*
X54820000Y-104465000D03*
X54820000Y-105115000D03*
X54820000Y-105765000D03*
X54820000Y-106415000D03*
X54820000Y-107065000D03*
X54820000Y-107715000D03*
X62020000Y-107715000D03*
X62020000Y-107065000D03*
X62020000Y-106415000D03*
X62020000Y-105765000D03*
X62020000Y-105115000D03*
X62020000Y-104465000D03*
X62020000Y-103815000D03*
X62020000Y-103165000D03*
X62020000Y-102515000D03*
X62020000Y-101865000D03*
X62020000Y-101215000D03*
X62020000Y-100565000D03*
D14*
X75565000Y-119220000D03*
X74295000Y-119220000D03*
X73025000Y-119220000D03*
X71755000Y-119220000D03*
X70485000Y-119220000D03*
X69215000Y-119220000D03*
X67945000Y-119220000D03*
X66675000Y-119220000D03*
X66675000Y-124620000D03*
X67945000Y-124620000D03*
X69215000Y-124620000D03*
X70485000Y-124620000D03*
X71755000Y-124620000D03*
X73025000Y-124620000D03*
X74295000Y-124620000D03*
X75565000Y-124620000D03*
D13*
X80220000Y-100565000D03*
X80220000Y-101215000D03*
X80220000Y-101865000D03*
X80220000Y-102515000D03*
X80220000Y-103165000D03*
X80220000Y-103815000D03*
X80220000Y-104465000D03*
X80220000Y-105115000D03*
X80220000Y-105765000D03*
X80220000Y-106415000D03*
X80220000Y-107065000D03*
X80220000Y-107715000D03*
X87420000Y-107715000D03*
X87420000Y-107065000D03*
X87420000Y-106415000D03*
X87420000Y-105765000D03*
X87420000Y-105115000D03*
X87420000Y-104465000D03*
X87420000Y-103815000D03*
X87420000Y-103165000D03*
X87420000Y-102515000D03*
X87420000Y-101865000D03*
X87420000Y-101215000D03*
X87420000Y-100565000D03*
X103080000Y-100565000D03*
X103080000Y-101215000D03*
X103080000Y-101865000D03*
X103080000Y-102515000D03*
X103080000Y-103165000D03*
X103080000Y-103815000D03*
X103080000Y-104465000D03*
X103080000Y-105115000D03*
X103080000Y-105765000D03*
X103080000Y-106415000D03*
X103080000Y-107065000D03*
X103080000Y-107715000D03*
X110280000Y-107715000D03*
X110280000Y-107065000D03*
X110280000Y-106415000D03*
X110280000Y-105765000D03*
X110280000Y-105115000D03*
X110280000Y-104465000D03*
X110280000Y-103815000D03*
X110280000Y-103165000D03*
X110280000Y-102515000D03*
X110280000Y-101865000D03*
X110280000Y-101215000D03*
X110280000Y-100565000D03*
D14*
X123825000Y-119220000D03*
X122555000Y-119220000D03*
X121285000Y-119220000D03*
X120015000Y-119220000D03*
X118745000Y-119220000D03*
X117475000Y-119220000D03*
X116205000Y-119220000D03*
X114935000Y-119220000D03*
X114935000Y-124620000D03*
X116205000Y-124620000D03*
X117475000Y-124620000D03*
X118745000Y-124620000D03*
X120015000Y-124620000D03*
X121285000Y-124620000D03*
X122555000Y-124620000D03*
X123825000Y-124620000D03*
D13*
X128480000Y-100565000D03*
X128480000Y-101215000D03*
X128480000Y-101865000D03*
X128480000Y-102515000D03*
X128480000Y-103165000D03*
X128480000Y-103815000D03*
X128480000Y-104465000D03*
X128480000Y-105115000D03*
X128480000Y-105765000D03*
X128480000Y-106415000D03*
X128480000Y-107065000D03*
X128480000Y-107715000D03*
X135680000Y-107715000D03*
X135680000Y-107065000D03*
X135680000Y-106415000D03*
X135680000Y-105765000D03*
X135680000Y-105115000D03*
X135680000Y-104465000D03*
X135680000Y-103815000D03*
X135680000Y-103165000D03*
X135680000Y-102515000D03*
X135680000Y-101865000D03*
X135680000Y-101215000D03*
X135680000Y-100565000D03*
X158960000Y-100565000D03*
X158960000Y-101215000D03*
X158960000Y-101865000D03*
X158960000Y-102515000D03*
X158960000Y-103165000D03*
X158960000Y-103815000D03*
X158960000Y-104465000D03*
X158960000Y-105115000D03*
X158960000Y-105765000D03*
X158960000Y-106415000D03*
X158960000Y-107065000D03*
X158960000Y-107715000D03*
X166160000Y-107715000D03*
X166160000Y-107065000D03*
X166160000Y-106415000D03*
X166160000Y-105765000D03*
X166160000Y-105115000D03*
X166160000Y-104465000D03*
X166160000Y-103815000D03*
X166160000Y-103165000D03*
X166160000Y-102515000D03*
X166160000Y-101865000D03*
X166160000Y-101215000D03*
X166160000Y-100565000D03*
D14*
X179705000Y-119220000D03*
X178435000Y-119220000D03*
X177165000Y-119220000D03*
X175895000Y-119220000D03*
X174625000Y-119220000D03*
X173355000Y-119220000D03*
X172085000Y-119220000D03*
X170815000Y-119220000D03*
X170815000Y-124620000D03*
X172085000Y-124620000D03*
X173355000Y-124620000D03*
X174625000Y-124620000D03*
X175895000Y-124620000D03*
X177165000Y-124620000D03*
X178435000Y-124620000D03*
X179705000Y-124620000D03*
D13*
X184360000Y-100565000D03*
X184360000Y-101215000D03*
X184360000Y-101865000D03*
X184360000Y-102515000D03*
X184360000Y-103165000D03*
X184360000Y-103815000D03*
X184360000Y-104465000D03*
X184360000Y-105115000D03*
X184360000Y-105765000D03*
X184360000Y-106415000D03*
X184360000Y-107065000D03*
X184360000Y-107715000D03*
X191560000Y-107715000D03*
X191560000Y-107065000D03*
X191560000Y-106415000D03*
X191560000Y-105765000D03*
X191560000Y-105115000D03*
X191560000Y-104465000D03*
X191560000Y-103815000D03*
X191560000Y-103165000D03*
X191560000Y-102515000D03*
X191560000Y-101865000D03*
X191560000Y-101215000D03*
X191560000Y-100565000D03*
X207220000Y-100565000D03*
X207220000Y-101215000D03*
X207220000Y-101865000D03*
X207220000Y-102515000D03*
X207220000Y-103165000D03*
X207220000Y-103815000D03*
X207220000Y-104465000D03*
X207220000Y-105115000D03*
X207220000Y-105765000D03*
X207220000Y-106415000D03*
X207220000Y-107065000D03*
X207220000Y-107715000D03*
X214420000Y-107715000D03*
X214420000Y-107065000D03*
X214420000Y-106415000D03*
X214420000Y-105765000D03*
X214420000Y-105115000D03*
X214420000Y-104465000D03*
X214420000Y-103815000D03*
X214420000Y-103165000D03*
X214420000Y-102515000D03*
X214420000Y-101865000D03*
X214420000Y-101215000D03*
X214420000Y-100565000D03*
D14*
X227965000Y-119220000D03*
X226695000Y-119220000D03*
X225425000Y-119220000D03*
X224155000Y-119220000D03*
X222885000Y-119220000D03*
X221615000Y-119220000D03*
X220345000Y-119220000D03*
X219075000Y-119220000D03*
X219075000Y-124620000D03*
X220345000Y-124620000D03*
X221615000Y-124620000D03*
X222885000Y-124620000D03*
X224155000Y-124620000D03*
X225425000Y-124620000D03*
X226695000Y-124620000D03*
X227965000Y-124620000D03*
D13*
X232620000Y-100565000D03*
X232620000Y-101215000D03*
X232620000Y-101865000D03*
X232620000Y-102515000D03*
X232620000Y-103165000D03*
X232620000Y-103815000D03*
X232620000Y-104465000D03*
X232620000Y-105115000D03*
X232620000Y-105765000D03*
X232620000Y-106415000D03*
X232620000Y-107065000D03*
X232620000Y-107715000D03*
X239820000Y-107715000D03*
X239820000Y-107065000D03*
X239820000Y-106415000D03*
X239820000Y-105765000D03*
X239820000Y-105115000D03*
X239820000Y-104465000D03*
X239820000Y-103815000D03*
X239820000Y-103165000D03*
X239820000Y-102515000D03*
X239820000Y-101865000D03*
X239820000Y-101215000D03*
X239820000Y-100565000D03*
M02*
