G04 #@! TF.FileFunction,Legend,Top*
%FSLAX46Y46*%
G04 Gerber Fmt 4.6, Leading zero omitted, Abs format (unit mm)*
G04 Created by KiCad (PCBNEW 4.0.7) date *
%MOMM*%
%LPD*%
G01*
G04 APERTURE LIST*
%ADD10C,0.100000*%
%ADD11C,0.120000*%
%ADD12C,0.150000*%
G04 APERTURE END LIST*
D10*
D11*
X44390000Y-87570000D02*
X44390000Y-90230000D01*
X143510000Y-87570000D02*
X44390000Y-87570000D01*
X143510000Y-90230000D02*
X44390000Y-90230000D01*
X143510000Y-87570000D02*
X143510000Y-90230000D01*
X144780000Y-87570000D02*
X146110000Y-87570000D01*
X146110000Y-87570000D02*
X146110000Y-88900000D01*
X148530000Y-87570000D02*
X148530000Y-90230000D01*
X247650000Y-87570000D02*
X148530000Y-87570000D01*
X247650000Y-90230000D02*
X148530000Y-90230000D01*
X247650000Y-87570000D02*
X247650000Y-90230000D01*
X248920000Y-87570000D02*
X250250000Y-87570000D01*
X250250000Y-87570000D02*
X250250000Y-88900000D01*
X39310000Y-123250000D02*
X41970000Y-123250000D01*
X39310000Y-102870000D02*
X39310000Y-123250000D01*
X41970000Y-102870000D02*
X41970000Y-123250000D01*
X39310000Y-102870000D02*
X41970000Y-102870000D01*
X39310000Y-101600000D02*
X39310000Y-100270000D01*
X39310000Y-100270000D02*
X40640000Y-100270000D01*
X252670000Y-123250000D02*
X255330000Y-123250000D01*
X252670000Y-102870000D02*
X252670000Y-123250000D01*
X255330000Y-102870000D02*
X255330000Y-123250000D01*
X252670000Y-102870000D02*
X255330000Y-102870000D01*
X252670000Y-101600000D02*
X252670000Y-100270000D01*
X252670000Y-100270000D02*
X254000000Y-100270000D01*
D12*
X55545000Y-99815000D02*
X55545000Y-100040000D01*
X61295000Y-99815000D02*
X61295000Y-100115000D01*
X61295000Y-108465000D02*
X61295000Y-108165000D01*
X55545000Y-108465000D02*
X55545000Y-108165000D01*
X55545000Y-99815000D02*
X61295000Y-99815000D01*
X55545000Y-108465000D02*
X61295000Y-108465000D01*
X55545000Y-100040000D02*
X53945000Y-100040000D01*
X76195000Y-119845000D02*
X76170000Y-119845000D01*
X76195000Y-123995000D02*
X76090000Y-123995000D01*
X66045000Y-123995000D02*
X66150000Y-123995000D01*
X66045000Y-119845000D02*
X66150000Y-119845000D01*
X76195000Y-119845000D02*
X76195000Y-123995000D01*
X66045000Y-119845000D02*
X66045000Y-123995000D01*
X76170000Y-119845000D02*
X76170000Y-118470000D01*
X80945000Y-99815000D02*
X80945000Y-100040000D01*
X86695000Y-99815000D02*
X86695000Y-100115000D01*
X86695000Y-108465000D02*
X86695000Y-108165000D01*
X80945000Y-108465000D02*
X80945000Y-108165000D01*
X80945000Y-99815000D02*
X86695000Y-99815000D01*
X80945000Y-108465000D02*
X86695000Y-108465000D01*
X80945000Y-100040000D02*
X79345000Y-100040000D01*
X103805000Y-99815000D02*
X103805000Y-100040000D01*
X109555000Y-99815000D02*
X109555000Y-100115000D01*
X109555000Y-108465000D02*
X109555000Y-108165000D01*
X103805000Y-108465000D02*
X103805000Y-108165000D01*
X103805000Y-99815000D02*
X109555000Y-99815000D01*
X103805000Y-108465000D02*
X109555000Y-108465000D01*
X103805000Y-100040000D02*
X102205000Y-100040000D01*
X124455000Y-119845000D02*
X124430000Y-119845000D01*
X124455000Y-123995000D02*
X124350000Y-123995000D01*
X114305000Y-123995000D02*
X114410000Y-123995000D01*
X114305000Y-119845000D02*
X114410000Y-119845000D01*
X124455000Y-119845000D02*
X124455000Y-123995000D01*
X114305000Y-119845000D02*
X114305000Y-123995000D01*
X124430000Y-119845000D02*
X124430000Y-118470000D01*
X129205000Y-99815000D02*
X129205000Y-100040000D01*
X134955000Y-99815000D02*
X134955000Y-100115000D01*
X134955000Y-108465000D02*
X134955000Y-108165000D01*
X129205000Y-108465000D02*
X129205000Y-108165000D01*
X129205000Y-99815000D02*
X134955000Y-99815000D01*
X129205000Y-108465000D02*
X134955000Y-108465000D01*
X129205000Y-100040000D02*
X127605000Y-100040000D01*
X159685000Y-99815000D02*
X159685000Y-100040000D01*
X165435000Y-99815000D02*
X165435000Y-100115000D01*
X165435000Y-108465000D02*
X165435000Y-108165000D01*
X159685000Y-108465000D02*
X159685000Y-108165000D01*
X159685000Y-99815000D02*
X165435000Y-99815000D01*
X159685000Y-108465000D02*
X165435000Y-108465000D01*
X159685000Y-100040000D02*
X158085000Y-100040000D01*
X180335000Y-119845000D02*
X180310000Y-119845000D01*
X180335000Y-123995000D02*
X180230000Y-123995000D01*
X170185000Y-123995000D02*
X170290000Y-123995000D01*
X170185000Y-119845000D02*
X170290000Y-119845000D01*
X180335000Y-119845000D02*
X180335000Y-123995000D01*
X170185000Y-119845000D02*
X170185000Y-123995000D01*
X180310000Y-119845000D02*
X180310000Y-118470000D01*
X185085000Y-99815000D02*
X185085000Y-100040000D01*
X190835000Y-99815000D02*
X190835000Y-100115000D01*
X190835000Y-108465000D02*
X190835000Y-108165000D01*
X185085000Y-108465000D02*
X185085000Y-108165000D01*
X185085000Y-99815000D02*
X190835000Y-99815000D01*
X185085000Y-108465000D02*
X190835000Y-108465000D01*
X185085000Y-100040000D02*
X183485000Y-100040000D01*
X207945000Y-99815000D02*
X207945000Y-100040000D01*
X213695000Y-99815000D02*
X213695000Y-100115000D01*
X213695000Y-108465000D02*
X213695000Y-108165000D01*
X207945000Y-108465000D02*
X207945000Y-108165000D01*
X207945000Y-99815000D02*
X213695000Y-99815000D01*
X207945000Y-108465000D02*
X213695000Y-108465000D01*
X207945000Y-100040000D02*
X206345000Y-100040000D01*
X228595000Y-119845000D02*
X228570000Y-119845000D01*
X228595000Y-123995000D02*
X228490000Y-123995000D01*
X218445000Y-123995000D02*
X218550000Y-123995000D01*
X218445000Y-119845000D02*
X218550000Y-119845000D01*
X228595000Y-119845000D02*
X228595000Y-123995000D01*
X218445000Y-119845000D02*
X218445000Y-123995000D01*
X228570000Y-119845000D02*
X228570000Y-118470000D01*
X233345000Y-99815000D02*
X233345000Y-100040000D01*
X239095000Y-99815000D02*
X239095000Y-100115000D01*
X239095000Y-108465000D02*
X239095000Y-108165000D01*
X233345000Y-108465000D02*
X233345000Y-108165000D01*
X233345000Y-99815000D02*
X239095000Y-99815000D01*
X233345000Y-108465000D02*
X239095000Y-108465000D01*
X233345000Y-100040000D02*
X231745000Y-100040000D01*
X146562381Y-89233333D02*
X147276667Y-89233333D01*
X147419524Y-89280953D01*
X147514762Y-89376191D01*
X147562381Y-89519048D01*
X147562381Y-89614286D01*
X147562381Y-88233333D02*
X147562381Y-88804762D01*
X147562381Y-88519048D02*
X146562381Y-88519048D01*
X146705238Y-88614286D01*
X146800476Y-88709524D01*
X146848095Y-88804762D01*
X250702381Y-89233333D02*
X251416667Y-89233333D01*
X251559524Y-89280953D01*
X251654762Y-89376191D01*
X251702381Y-89519048D01*
X251702381Y-89614286D01*
X250797619Y-88804762D02*
X250750000Y-88757143D01*
X250702381Y-88661905D01*
X250702381Y-88423809D01*
X250750000Y-88328571D01*
X250797619Y-88280952D01*
X250892857Y-88233333D01*
X250988095Y-88233333D01*
X251130952Y-88280952D01*
X251702381Y-88852381D01*
X251702381Y-88233333D01*
X40306667Y-98722381D02*
X40306667Y-99436667D01*
X40259047Y-99579524D01*
X40163809Y-99674762D01*
X40020952Y-99722381D01*
X39925714Y-99722381D01*
X40687619Y-98722381D02*
X41306667Y-98722381D01*
X40973333Y-99103333D01*
X41116191Y-99103333D01*
X41211429Y-99150952D01*
X41259048Y-99198571D01*
X41306667Y-99293810D01*
X41306667Y-99531905D01*
X41259048Y-99627143D01*
X41211429Y-99674762D01*
X41116191Y-99722381D01*
X40830476Y-99722381D01*
X40735238Y-99674762D01*
X40687619Y-99627143D01*
X253666667Y-98722381D02*
X253666667Y-99436667D01*
X253619047Y-99579524D01*
X253523809Y-99674762D01*
X253380952Y-99722381D01*
X253285714Y-99722381D01*
X254571429Y-99055714D02*
X254571429Y-99722381D01*
X254333333Y-98674762D02*
X254095238Y-99389048D01*
X254714286Y-99389048D01*
X57658095Y-98342381D02*
X57658095Y-99151905D01*
X57705714Y-99247143D01*
X57753333Y-99294762D01*
X57848571Y-99342381D01*
X58039048Y-99342381D01*
X58134286Y-99294762D01*
X58181905Y-99247143D01*
X58229524Y-99151905D01*
X58229524Y-98342381D01*
X59229524Y-99342381D02*
X58658095Y-99342381D01*
X58943809Y-99342381D02*
X58943809Y-98342381D01*
X58848571Y-98485238D01*
X58753333Y-98580476D01*
X58658095Y-98628095D01*
X76572381Y-122681905D02*
X77381905Y-122681905D01*
X77477143Y-122634286D01*
X77524762Y-122586667D01*
X77572381Y-122491429D01*
X77572381Y-122300952D01*
X77524762Y-122205714D01*
X77477143Y-122158095D01*
X77381905Y-122110476D01*
X76572381Y-122110476D01*
X76667619Y-121681905D02*
X76620000Y-121634286D01*
X76572381Y-121539048D01*
X76572381Y-121300952D01*
X76620000Y-121205714D01*
X76667619Y-121158095D01*
X76762857Y-121110476D01*
X76858095Y-121110476D01*
X77000952Y-121158095D01*
X77572381Y-121729524D01*
X77572381Y-121110476D01*
X83058095Y-98342381D02*
X83058095Y-99151905D01*
X83105714Y-99247143D01*
X83153333Y-99294762D01*
X83248571Y-99342381D01*
X83439048Y-99342381D01*
X83534286Y-99294762D01*
X83581905Y-99247143D01*
X83629524Y-99151905D01*
X83629524Y-98342381D01*
X84010476Y-98342381D02*
X84629524Y-98342381D01*
X84296190Y-98723333D01*
X84439048Y-98723333D01*
X84534286Y-98770952D01*
X84581905Y-98818571D01*
X84629524Y-98913810D01*
X84629524Y-99151905D01*
X84581905Y-99247143D01*
X84534286Y-99294762D01*
X84439048Y-99342381D01*
X84153333Y-99342381D01*
X84058095Y-99294762D01*
X84010476Y-99247143D01*
X105918095Y-98342381D02*
X105918095Y-99151905D01*
X105965714Y-99247143D01*
X106013333Y-99294762D01*
X106108571Y-99342381D01*
X106299048Y-99342381D01*
X106394286Y-99294762D01*
X106441905Y-99247143D01*
X106489524Y-99151905D01*
X106489524Y-98342381D01*
X107441905Y-98342381D02*
X106965714Y-98342381D01*
X106918095Y-98818571D01*
X106965714Y-98770952D01*
X107060952Y-98723333D01*
X107299048Y-98723333D01*
X107394286Y-98770952D01*
X107441905Y-98818571D01*
X107489524Y-98913810D01*
X107489524Y-99151905D01*
X107441905Y-99247143D01*
X107394286Y-99294762D01*
X107299048Y-99342381D01*
X107060952Y-99342381D01*
X106965714Y-99294762D01*
X106918095Y-99247143D01*
X124832381Y-122681905D02*
X125641905Y-122681905D01*
X125737143Y-122634286D01*
X125784762Y-122586667D01*
X125832381Y-122491429D01*
X125832381Y-122300952D01*
X125784762Y-122205714D01*
X125737143Y-122158095D01*
X125641905Y-122110476D01*
X124832381Y-122110476D01*
X124832381Y-121205714D02*
X124832381Y-121396191D01*
X124880000Y-121491429D01*
X124927619Y-121539048D01*
X125070476Y-121634286D01*
X125260952Y-121681905D01*
X125641905Y-121681905D01*
X125737143Y-121634286D01*
X125784762Y-121586667D01*
X125832381Y-121491429D01*
X125832381Y-121300952D01*
X125784762Y-121205714D01*
X125737143Y-121158095D01*
X125641905Y-121110476D01*
X125403810Y-121110476D01*
X125308571Y-121158095D01*
X125260952Y-121205714D01*
X125213333Y-121300952D01*
X125213333Y-121491429D01*
X125260952Y-121586667D01*
X125308571Y-121634286D01*
X125403810Y-121681905D01*
X131318095Y-98342381D02*
X131318095Y-99151905D01*
X131365714Y-99247143D01*
X131413333Y-99294762D01*
X131508571Y-99342381D01*
X131699048Y-99342381D01*
X131794286Y-99294762D01*
X131841905Y-99247143D01*
X131889524Y-99151905D01*
X131889524Y-98342381D01*
X132270476Y-98342381D02*
X132937143Y-98342381D01*
X132508571Y-99342381D01*
X161798095Y-98342381D02*
X161798095Y-99151905D01*
X161845714Y-99247143D01*
X161893333Y-99294762D01*
X161988571Y-99342381D01*
X162179048Y-99342381D01*
X162274286Y-99294762D01*
X162321905Y-99247143D01*
X162369524Y-99151905D01*
X162369524Y-98342381D01*
X162988571Y-98770952D02*
X162893333Y-98723333D01*
X162845714Y-98675714D01*
X162798095Y-98580476D01*
X162798095Y-98532857D01*
X162845714Y-98437619D01*
X162893333Y-98390000D01*
X162988571Y-98342381D01*
X163179048Y-98342381D01*
X163274286Y-98390000D01*
X163321905Y-98437619D01*
X163369524Y-98532857D01*
X163369524Y-98580476D01*
X163321905Y-98675714D01*
X163274286Y-98723333D01*
X163179048Y-98770952D01*
X162988571Y-98770952D01*
X162893333Y-98818571D01*
X162845714Y-98866190D01*
X162798095Y-98961429D01*
X162798095Y-99151905D01*
X162845714Y-99247143D01*
X162893333Y-99294762D01*
X162988571Y-99342381D01*
X163179048Y-99342381D01*
X163274286Y-99294762D01*
X163321905Y-99247143D01*
X163369524Y-99151905D01*
X163369524Y-98961429D01*
X163321905Y-98866190D01*
X163274286Y-98818571D01*
X163179048Y-98770952D01*
X180712381Y-122681905D02*
X181521905Y-122681905D01*
X181617143Y-122634286D01*
X181664762Y-122586667D01*
X181712381Y-122491429D01*
X181712381Y-122300952D01*
X181664762Y-122205714D01*
X181617143Y-122158095D01*
X181521905Y-122110476D01*
X180712381Y-122110476D01*
X181712381Y-121586667D02*
X181712381Y-121396191D01*
X181664762Y-121300952D01*
X181617143Y-121253333D01*
X181474286Y-121158095D01*
X181283810Y-121110476D01*
X180902857Y-121110476D01*
X180807619Y-121158095D01*
X180760000Y-121205714D01*
X180712381Y-121300952D01*
X180712381Y-121491429D01*
X180760000Y-121586667D01*
X180807619Y-121634286D01*
X180902857Y-121681905D01*
X181140952Y-121681905D01*
X181236190Y-121634286D01*
X181283810Y-121586667D01*
X181331429Y-121491429D01*
X181331429Y-121300952D01*
X181283810Y-121205714D01*
X181236190Y-121158095D01*
X181140952Y-121110476D01*
X186721905Y-98342381D02*
X186721905Y-99151905D01*
X186769524Y-99247143D01*
X186817143Y-99294762D01*
X186912381Y-99342381D01*
X187102858Y-99342381D01*
X187198096Y-99294762D01*
X187245715Y-99247143D01*
X187293334Y-99151905D01*
X187293334Y-98342381D01*
X188293334Y-99342381D02*
X187721905Y-99342381D01*
X188007619Y-99342381D02*
X188007619Y-98342381D01*
X187912381Y-98485238D01*
X187817143Y-98580476D01*
X187721905Y-98628095D01*
X188912381Y-98342381D02*
X189007620Y-98342381D01*
X189102858Y-98390000D01*
X189150477Y-98437619D01*
X189198096Y-98532857D01*
X189245715Y-98723333D01*
X189245715Y-98961429D01*
X189198096Y-99151905D01*
X189150477Y-99247143D01*
X189102858Y-99294762D01*
X189007620Y-99342381D01*
X188912381Y-99342381D01*
X188817143Y-99294762D01*
X188769524Y-99247143D01*
X188721905Y-99151905D01*
X188674286Y-98961429D01*
X188674286Y-98723333D01*
X188721905Y-98532857D01*
X188769524Y-98437619D01*
X188817143Y-98390000D01*
X188912381Y-98342381D01*
X209581905Y-98342381D02*
X209581905Y-99151905D01*
X209629524Y-99247143D01*
X209677143Y-99294762D01*
X209772381Y-99342381D01*
X209962858Y-99342381D01*
X210058096Y-99294762D01*
X210105715Y-99247143D01*
X210153334Y-99151905D01*
X210153334Y-98342381D01*
X211153334Y-99342381D02*
X210581905Y-99342381D01*
X210867619Y-99342381D02*
X210867619Y-98342381D01*
X210772381Y-98485238D01*
X210677143Y-98580476D01*
X210581905Y-98628095D01*
X211534286Y-98437619D02*
X211581905Y-98390000D01*
X211677143Y-98342381D01*
X211915239Y-98342381D01*
X212010477Y-98390000D01*
X212058096Y-98437619D01*
X212105715Y-98532857D01*
X212105715Y-98628095D01*
X212058096Y-98770952D01*
X211486667Y-99342381D01*
X212105715Y-99342381D01*
X228972381Y-123158095D02*
X229781905Y-123158095D01*
X229877143Y-123110476D01*
X229924762Y-123062857D01*
X229972381Y-122967619D01*
X229972381Y-122777142D01*
X229924762Y-122681904D01*
X229877143Y-122634285D01*
X229781905Y-122586666D01*
X228972381Y-122586666D01*
X229972381Y-121586666D02*
X229972381Y-122158095D01*
X229972381Y-121872381D02*
X228972381Y-121872381D01*
X229115238Y-121967619D01*
X229210476Y-122062857D01*
X229258095Y-122158095D01*
X228972381Y-121253333D02*
X228972381Y-120634285D01*
X229353333Y-120967619D01*
X229353333Y-120824761D01*
X229400952Y-120729523D01*
X229448571Y-120681904D01*
X229543810Y-120634285D01*
X229781905Y-120634285D01*
X229877143Y-120681904D01*
X229924762Y-120729523D01*
X229972381Y-120824761D01*
X229972381Y-121110476D01*
X229924762Y-121205714D01*
X229877143Y-121253333D01*
X234981905Y-98342381D02*
X234981905Y-99151905D01*
X235029524Y-99247143D01*
X235077143Y-99294762D01*
X235172381Y-99342381D01*
X235362858Y-99342381D01*
X235458096Y-99294762D01*
X235505715Y-99247143D01*
X235553334Y-99151905D01*
X235553334Y-98342381D01*
X236553334Y-99342381D02*
X235981905Y-99342381D01*
X236267619Y-99342381D02*
X236267619Y-98342381D01*
X236172381Y-98485238D01*
X236077143Y-98580476D01*
X235981905Y-98628095D01*
X237410477Y-98675714D02*
X237410477Y-99342381D01*
X237172381Y-98294762D02*
X236934286Y-99009048D01*
X237553334Y-99009048D01*
M02*
